<svg version="1.1" id="final_2-color_logo" xmlns="http://www.w3.org/2000/svg" x="0" y="0" viewBox="0 0 432 432" xml:space="preserve"><style>.st2{fill:#fff}</style><pattern y="432" width="69" height="69" patternUnits="userSpaceOnUse" id="Unnamed_Pattern" viewBox="2.1 -70.9 69 69" overflow="visible"><path fill="none" d="M2.1-70.9h69v69h-69z"/><path fill="#f7bc60" d="M2.1-70.9h69v69h-69z"/><path class="st2" d="M61.8-71.7v.2c-.1.1-.1.1-.2.1-.1.1-.1.3-.1.4-.2.1 0 .2 0 .3v.2c0 .1 0 .3.1.4.1.2.3.4.4.5.2.1.4.6.6.6.2 0 .4-.1.5-.1.2 0 .4 0 .6-.1.2-.1.1-.3.3-.5.1-.1.3 0 .4-.1.2-.1.3-.3.4-.5v-.2c0-.1.1-.2.1-.3 0-.1-.1-.1-.1-.2v-.3c0-.2 0-.4-.1-.5-.4-.7-1.2-.9-2-.8-.2 0-.3.1-.4.2-.2.1-.1.2-.3.2-.1 0-.2.1-.2.2v.3c0 .1 0 .1 0 0M54.1-71.7v.2c-.1.1-.1.1-.2.1-.1.1-.1.3-.1.4-.2.1 0 .2 0 .3v.2c0 .1 0 .3.1.4.1.2.3.4.4.5.2.1.4.6.6.6.2 0 .4-.1.5-.1.2 0 .4 0 .6-.1.2-.1.1-.3.3-.5.1-.1.3 0 .4-.1.2-.1.3-.3.4-.5v-.2c0-.1.1-.2.1-.3 0-.1-.1-.1-.1-.2v-.3c0-.2 0-.4-.1-.5-.4-.7-1.2-.9-2-.8-.2 0-.3.1-.4.2-.2.1-.1.2-.3.2-.1 0-.2.1-.2.2v.3c0 .1 0 .1 0 0M46.4-71.7v.2c-.1.1-.1.1-.2.1-.1.1-.1.3-.1.4-.2.1 0 .2 0 .3v.2c0 .1 0 .3.1.4.1.2.3.4.4.5.2.1.4.6.6.6.2 0 .4-.1.5-.1.2 0 .4 0 .6-.1.2-.1.1-.3.3-.5.1-.1.3 0 .4-.1.2-.1.3-.3.4-.5v-.2c0-.1.1-.2.1-.3 0-.1-.1-.1-.1-.2v-.3c0-.2 0-.4-.1-.5-.4-.7-1.2-.9-2-.8-.2 0-.3.1-.4.2-.2.1-.1.2-.3.2-.1 0-.2.1-.2.2v.3c0 .1 0 .1 0 0M38.8-71.7v.2c-.1.1-.1.1-.2.1-.1.1-.1.3-.1.4-.2.1 0 .2 0 .3v.2c0 .1 0 .3.1.4.1.2.3.4.4.5.2.1.4.6.6.6.2 0 .4-.1.5-.1.2 0 .4 0 .6-.1.2-.1.1-.3.3-.5.1-.1.3 0 .4-.1.2-.1.3-.3.4-.5v-.2c0-.1.1-.2.1-.3 0-.1-.1-.1-.1-.2v-.3c0-.2 0-.4-.1-.5-.4-.7-1.2-.9-2-.8-.2 0-.3.1-.4.2-.2.1-.1.2-.3.2-.1 0-.2.1-.2.2v.3c0 .1 0 .1 0 0M31.1-71.7v.2c-.1.1-.1.1-.2.1-.1.1-.1.3-.1.4-.2.1 0 .2 0 .3v.2c0 .1 0 .3.1.4.1.2.3.4.4.5.2.1.4.6.6.6.2 0 .4-.1.5-.1.2 0 .4 0 .6-.1.2-.1.1-.3.3-.5.1-.1.3 0 .4-.1.2-.1.3-.3.4-.5v-.2c0-.1.1-.2.1-.3 0-.1-.1-.1-.1-.2v-.3c0-.2 0-.4-.1-.5-.4-.7-1.2-.9-2-.8-.2 0-.3.1-.4.2-.2.1-.1.2-.3.2-.1 0-.2.1-.2.2v.3c0 .1 0 .1 0 0M23.4-71.7v.2c-.1.1-.1.1-.2.1-.1.1-.1.3-.1.4-.2.1 0 .2 0 .3v.2c0 .1 0 .3.1.4.1.2.3.4.4.5.2.1.4.6.6.6.2 0 .4-.1.5-.1.2 0 .4 0 .6-.1.2-.1.1-.3.3-.5.1-.1.3 0 .4-.1.2-.1.3-.3.4-.5v-.2c0-.1.1-.2.1-.3 0-.1-.1-.1-.1-.2v-.3c0-.2 0-.4-.1-.5-.4-.7-1.2-.9-2-.8-.2 0-.3.1-.4.2-.2.1-.1.2-.3.2-.1 0-.2.1-.2.2v.3c0 .1 0 .1 0 0M15.8-71.7v.2c-.1.1-.1.1-.2.1-.1.1-.1.3-.1.4-.2.1 0 .2 0 .3v.2c0 .1 0 .3.1.4.1.2.3.4.4.5.2.1.4.6.6.6.2 0 .4-.1.5-.1.2 0 .4 0 .6-.1.2-.1.1-.3.3-.5.1-.1.3 0 .4-.1.2-.1.3-.3.4-.5v-.2c0-.1.1-.2.1-.3 0-.1-.1-.1-.1-.2v-.3c0-.2 0-.4-.1-.5-.4-.7-1.2-.9-2-.8-.2 0-.3.1-.4.2-.2.1-.1.2-.3.2-.1 0-.2.1-.2.2v.3c0 .1 0 .1 0 0M8.1-71.7v.2l-.2.2c-.1.1-.1.3-.1.4-.2.1 0 .2 0 .3v.2c0 .1 0 .3.1.4.1.2.3.4.4.5.2.1.4.6.6.6.2 0 .4-.1.5-.1.2 0 .4 0 .6-.1.2-.1.1-.3.3-.5.1-.1.3 0 .4-.1.2-.1.3-.3.4-.5v-.2c0-.1.1-.2.1-.3 0-.1-.1-.1-.1-.2v-.3c0-.2 0-.4-.1-.5-.4-.7-1.2-.9-2-.8-.2 0-.3.1-.4.2-.2.1-.1.2-.3.2-.1 0-.2.1-.2.2v.2c0 .1 0 .1 0 0M.4-71.7v.2c-.1.1-.1.1-.2.1-.1.1-.1.3-.1.4-.2.1 0 .2 0 .3v.2c0 .1 0 .3.1.4.1.2.3.4.4.5.2.2.4.6.6.7.2 0 .4-.1.5-.1.2 0 .4 0 .6-.1.2-.1.1-.3.3-.5.1-.1.3 0 .4-.1.2-.1.3-.3.4-.5v-.2c0-.1.1-.2.1-.3 0-.1-.1-.1-.1-.2v-.3c0-.2 0-.4-.1-.5-.4-.7-1.2-.9-2-.8-.2 0-.3.1-.4.2-.2.1-.1.2-.3.2-.1 0-.2.1-.2.2v.2c0 .1 0 .1 0 0"/><g><path class="st2" d="M69.4-71.7v.2c-.1.1-.1.1-.2.1-.1.1-.1.3-.1.4-.2.1 0 .2 0 .3v.2c0 .1 0 .3.1.4.1.2.3.4.4.5.2.1.4.6.6.6.2 0 .4-.1.5-.1.2 0 .4 0 .6-.1.2-.1.1-.3.3-.5.1-.1.3 0 .4-.1.2-.1.3-.3.4-.5v-.2c0-.1.1-.2.1-.3 0-.1-.1-.1-.1-.2v-.3c0-.2 0-.4-.1-.5-.4-.7-1.2-.9-2-.8-.2 0-.3.1-.4.2-.2.1-.1.2-.3.2-.1 0-.2.1-.2.2v.3c0 .1 0 .1 0 0"/></g><path class="st2" d="M.5-71.7v.2c-.1.1-.1.1-.2.1-.1.1-.1.3-.1.4-.2.1 0 .2 0 .3v.2c0 .1 0 .3.1.4.1.2.3.4.4.5.2.2.3.6.6.7.2 0 .4-.1.5-.1.2 0 .4 0 .6-.1.2-.1.1-.3.3-.5.1-.1.3 0 .4-.1.2-.1.3-.3.4-.5v-.2c0-.1.1-.2.1-.3 0-.1-.1-.1-.1-.2v-.3c0-.2 0-.4-.1-.5-.4-.7-1.2-.9-2-.8-.2 0-.3.1-.4.2-.2.1-.1.2-.3.2-.1 0-.2.1-.2.2v.2c0 .1 0 .1 0 0"/><g><path class="st2" d="M69.4-64v.2c-.1.1-.1.1-.2.1-.1.1-.1.3-.1.4-.2.1 0 .2 0 .3v.2c0 .1 0 .3.1.4.1.2.3.4.4.5.2.1.4.6.6.6.2 0 .4-.1.5-.1.2 0 .4 0 .6-.1.2-.1.1-.3.3-.5.1-.1.3 0 .4-.1.2-.1.3-.3.4-.5v-.2c0-.1.1-.2.1-.3 0-.1-.1-.1-.1-.2v-.3c0-.2 0-.4-.1-.5-.4-.7-1.2-.9-2-.8-.2 0-.3.1-.4.2-.2.1-.1.2-.3.2-.1 0-.2.1-.2.2v.3M61.8-64v.2c-.1.1-.1.1-.2.1-.1.1-.1.3-.1.4-.2.1 0 .2 0 .3v.2c0 .1 0 .3.1.4.1.2.3.4.4.5.2.1.4.6.6.6.2 0 .4-.1.5-.1.2 0 .4 0 .6-.1.2-.1.1-.3.3-.5.1-.1.3 0 .4-.1.2-.1.3-.3.4-.5v-.2c0-.1.1-.2.1-.3 0-.1-.1-.1-.1-.2v-.3c0-.2 0-.4-.1-.5-.4-.7-1.2-.9-2-.8-.2 0-.3.1-.4.2-.2.1-.1.2-.3.2-.1 0-.2.1-.2.2v.3M54.1-64v.2c-.1.1-.1.1-.2.1-.1.1-.1.3-.1.4-.2.1 0 .2 0 .3v.2c0 .1 0 .3.1.4.1.2.3.4.4.5.2.1.4.6.6.6.2 0 .4-.1.5-.1.2 0 .4 0 .6-.1.2-.1.1-.3.3-.5.1-.1.3 0 .4-.1.2-.1.3-.3.4-.5v-.2c0-.1.1-.2.1-.3 0-.1-.1-.1-.1-.2v-.3c0-.2 0-.4-.1-.5-.4-.7-1.2-.9-2-.8-.2 0-.3.1-.4.2-.2.1-.1.2-.3.2-.1 0-.2.1-.2.2v.3M46.5-64v.2c-.1.1-.1.1-.2.1-.1.1-.1.3-.1.4-.2.1 0 .2 0 .3v.2c0 .1 0 .3.1.4.1.2.3.4.4.5.2.1.4.6.6.6.2 0 .4-.1.5-.1.2 0 .4 0 .6-.1.2-.1.1-.3.3-.5.1-.1.3 0 .4-.1.2-.1.3-.3.4-.5v-.2c0-.1.1-.2.1-.3 0-.1-.1-.1-.1-.2v-.3c0-.2 0-.4-.1-.5-.4-.7-1.2-.9-2-.8-.2 0-.3.1-.4.2-.2.1-.1.2-.3.2-.1 0-.2.1-.2.2v.3M38.8-64v.2c-.1.1-.1.1-.2.1-.1.1-.1.3-.1.4-.2.1 0 .2 0 .3v.2c0 .1 0 .3.1.4.1.2.3.4.4.5.2.1.4.6.6.6.2 0 .4-.1.5-.1.2 0 .4 0 .6-.1.2-.1.1-.3.3-.5.1-.1.3 0 .4-.1.2-.1.3-.3.4-.5v-.2c0-.1.1-.2.1-.3 0-.1-.1-.1-.1-.2v-.3c0-.2 0-.4-.1-.5-.4-.7-1.2-.9-2-.8-.2 0-.3.1-.4.2-.2.1-.1.2-.3.2-.1 0-.2.1-.2.2v.3M31.1-64v.2c-.1.1-.1.1-.2.1-.1.1-.1.3-.1.4-.2.1 0 .2 0 .3v.2c0 .1 0 .3.1.4.1.2.3.4.4.5.2.1.4.6.6.6.2 0 .4-.1.5-.1.2 0 .4 0 .6-.1.2-.1.1-.3.3-.5.1-.1.3 0 .4-.1.2-.1.3-.3.4-.5v-.2c0-.1.1-.2.1-.3 0-.1-.1-.1-.1-.2v-.3c0-.2 0-.4-.1-.5-.4-.7-1.2-.9-2-.8-.2 0-.3.1-.4.2-.2.1-.1.2-.3.2-.1 0-.2.1-.2.2v.3M23.5-64v.2c-.1.1-.1.1-.2.1-.1.1-.1.3-.1.4-.2.1 0 .2 0 .3v.2c0 .1 0 .3.1.4.1.2.3.4.4.5.2.1.4.6.6.6.2 0 .4-.1.5-.1.2 0 .4 0 .6-.1.2-.1.1-.3.3-.5.1-.1.3 0 .4-.1.2-.1.3-.3.4-.5v-.2c0-.1.1-.2.1-.3 0-.1-.1-.1-.1-.2v-.3c0-.2 0-.4-.1-.5-.4-.7-1.2-.9-2-.8-.2 0-.3.1-.4.2-.2.1-.1.2-.3.2-.1 0-.2.1-.2.2v.3M15.8-64v.2c-.1.1-.1.1-.2.1-.1.1-.1.3-.1.4-.2.1 0 .2 0 .3v.2c0 .1 0 .3.1.4.1.2.3.4.4.5.2.1.4.6.6.6.2 0 .4-.1.5-.1.2 0 .4 0 .6-.1.2-.1.1-.3.3-.5.1-.1.3 0 .4-.1.2-.1.3-.3.4-.5v-.2c0-.1.1-.2.1-.3 0-.1-.1-.1-.1-.2v-.3c0-.2 0-.4-.1-.5-.4-.7-1.2-.9-2-.8-.2 0-.3.1-.4.2-.2.1-.1.2-.3.2-.1 0-.2.1-.2.2v.3M8.2-64v.2c-.1.1-.2.1-.2.1-.1.1-.1.3-.1.4-.2.1 0 .2 0 .3v.2c0 .1 0 .3.1.4 0 .2.2.4.3.5.2.1.4.6.6.6.2 0 .4-.1.5-.1.2 0 .4 0 .6-.1.2-.1.1-.3.3-.5.1-.1.3 0 .4-.1.2-.1.3-.3.4-.5v-.2c0-.1.1-.2.1-.3 0-.1-.1-.1-.1-.2v-.3c0-.2 0-.4-.1-.5-.4-.7-1.2-.9-2-.8-.2 0-.3.1-.4.2-.2.1-.1.2-.3.2-.1 0-.2.1-.2.2.1.3.1.2.1.3-.1 0-.1 0 0 0M.5-64v.2c-.1.1-.1.1-.2.1-.1.1-.1.3-.1.4-.2.1 0 .2 0 .3v.2c0 .1 0 .3.1.4.1.2.3.4.4.5.2.1.4.6.6.6.2 0 .4-.1.5-.1.2 0 .4 0 .6-.1.2-.1.1-.3.3-.5.1 0 .3.1.4 0 .2-.1.3-.3.4-.5v-.2c0-.1.1-.2.1-.3 0-.1-.1-.1-.1-.2v-.3c0-.2 0-.4-.1-.5-.4-.7-1.2-.9-2-.8-.2 0-.3.1-.4.2-.2.1-.1.2-.3.2-.1 0-.2.1-.2.2v.2"/><g><path class="st2" d="M69.4-56.3v.2c-.1.1-.1.1-.2.1-.1.1-.1.3-.1.4-.2.1 0 .2 0 .3v.2c0 .1 0 .3.1.4.1.2.3.4.4.5.2.1.4.6.6.6.2 0 .4-.1.5-.1.2 0 .4 0 .6-.1.2-.1.1-.3.3-.5.1-.1.3 0 .4-.1.2-.1.3-.3.4-.5v-.2c0-.1.1-.2.1-.3 0-.1-.1-.1-.1-.2v-.3c0-.2 0-.4-.1-.5-.4-.7-1.2-.9-2-.8-.2 0-.3.1-.4.2-.2.1-.1.2-.3.2-.1 0-.2.1-.2.2v.3M61.8-56.3v.2c-.1.1-.1.1-.2.1-.1.1-.1.3-.1.4-.2.1 0 .2 0 .3v.2c0 .1 0 .3.1.4.1.2.3.4.4.5.2.1.4.6.6.6.2 0 .4-.1.5-.1.2 0 .4 0 .6-.1.2-.1.1-.3.3-.5.1-.1.3 0 .4-.1.2-.1.3-.3.4-.5v-.2c0-.1.1-.2.1-.3 0-.1-.1-.1-.1-.2v-.3c0-.2 0-.4-.1-.5-.4-.7-1.2-.9-2-.8-.2 0-.3.1-.4.2-.2.1-.1.2-.3.2-.1 0-.2.1-.2.2v.3M54.1-56.3v.2c-.1 0-.1 0-.2.1s-.1.3-.1.4c-.2.1 0 .2 0 .3v.2c0 .1 0 .3.1.4.1.2.3.4.4.5.2.1.4.6.6.6.2 0 .4-.1.5-.1.2 0 .4 0 .6-.1.2-.1.1-.3.3-.5.1-.1.3 0 .4-.1.2-.1.3-.3.4-.5v-.2c0-.1.1-.2.1-.3 0-.1-.1-.1-.1-.2v-.3c0-.2 0-.4-.1-.5-.4-.7-1.2-.9-2-.8-.2 0-.3.1-.4.2-.2.1-.1.2-.3.2-.1 0-.2.1-.2.2v.3M46.5-56.3v.2c-.1.1-.1.1-.2.1-.1.1-.1.3-.1.4-.2.1 0 .2 0 .3v.2c0 .1 0 .3.1.4.1.2.3.4.4.5.2.1.4.6.6.6.2 0 .4-.1.5-.1.2 0 .4 0 .6-.1.2-.1.1-.3.3-.5.1-.1.3 0 .4-.1.2-.1.3-.3.4-.5v-.2c0-.1.1-.2.1-.3 0-.1-.1-.1-.1-.2v-.3c0-.2 0-.4-.1-.5-.4-.7-1.2-.9-2-.8-.2 0-.3.1-.4.2-.2.1-.1.2-.3.2-.1 0-.2.1-.2.2v.3M38.8-56.3v.2c-.1.1-.1.1-.2.1-.1.1-.1.3-.1.4-.2.1 0 .2 0 .3v.2c0 .1 0 .3.1.4.1.2.3.4.4.5.2.1.4.6.6.6.2 0 .4-.1.5-.1.2 0 .4 0 .6-.1.2-.1.1-.3.3-.5.1-.1.3 0 .4-.1.2-.1.3-.3.4-.5v-.2c0-.1.1-.2.1-.3 0-.1-.1-.1-.1-.2v-.3c0-.2 0-.4-.1-.5-.4-.7-1.2-.9-2-.8-.2 0-.3.1-.4.2-.2.1-.1.2-.3.2-.1 0-.2.1-.2.2v.3M31.1-56.3v.2c-.1.1-.1.1-.2.1-.1.1-.1.3-.1.4-.2.1 0 .2 0 .3v.2c0 .1 0 .3.1.4.1.2.3.4.4.5.2.1.4.6.6.6.2 0 .4-.1.5-.1.2 0 .4 0 .6-.1.2-.1.1-.3.3-.5.1-.1.3 0 .4-.1.2-.1.3-.3.4-.5v-.2c0-.1.1-.2.1-.3 0-.1-.1-.1-.1-.2v-.3c0-.2 0-.4-.1-.5-.4-.7-1.2-.9-2-.8-.2 0-.3.1-.4.2-.2.1-.1.2-.3.2-.1 0-.2.1-.2.2v.3M23.5-56.3v.2c-.1.1-.1.1-.2.1-.1.1-.1.3-.1.4-.2.1 0 .2 0 .3v.2c0 .1 0 .3.1.4.1.2.3.4.4.5.2.1.4.6.6.6.2 0 .4-.1.5-.1.2 0 .4 0 .6-.1.2-.1.1-.3.3-.5.1-.1.3 0 .4-.1.2-.1.3-.3.4-.5v-.2c0-.1.1-.2.1-.3 0-.1-.1-.1-.1-.2v-.3c0-.2 0-.4-.1-.5-.4-.7-1.2-.9-2-.8-.2 0-.3.1-.4.2-.2.1-.1.2-.3.2-.1 0-.2.1-.2.2v.3M15.8-56.3v.2c-.1.1-.1.1-.2.1-.1.1-.1.3-.1.4-.2.1 0 .2 0 .3v.2c0 .1 0 .3.1.4.1.2.3.4.4.5.2.1.4.6.6.6.2 0 .4-.1.5-.1.2 0 .4 0 .6-.1.2-.1.1-.3.3-.5.1-.1.3 0 .4-.1.2-.1.3-.3.4-.5v-.2c0-.1.1-.2.1-.3 0-.1-.1-.1-.1-.2v-.3c0-.2 0-.4-.1-.5-.4-.7-1.2-.9-2-.8-.2 0-.3.1-.4.2-.2.1-.1.2-.3.2-.1 0-.2.1-.2.2v.3M8.2-56.3v.2c-.1 0-.2 0-.2.1-.1.1-.1.3-.1.4-.2.1 0 .2 0 .3v.2c0 .1 0 .3.1.4.1.2.3.4.4.5.2.1.4.6.6.6.2 0 .4-.1.5-.1.2 0 .4 0 .6-.1.2-.1.1-.3.3-.5.1-.1.3 0 .4-.1.2-.1.3-.3.4-.5v-.2c0-.1.1-.2.1-.3 0-.1-.1-.1-.1-.2v-.3c0-.2 0-.4-.1-.5-.4-.7-1.2-.9-2-.8-.2 0-.3.1-.4.2-.2.1-.1.2-.3.2-.1 0-.2.1-.2.2v.3c-.1 0-.1 0 0 0M.5-56.3v.2c-.1.1-.1.1-.2.1-.1.1-.1.3-.1.4-.2.1 0 .2 0 .3v.2c0 .1 0 .3.1.4.1.2.3.4.4.5.2.1.4.6.6.6.2 0 .4-.1.5-.1.2 0 .4 0 .6-.1.2-.1.1-.3.3-.5.1-.1.3 0 .4-.1.2-.1.3-.3.4-.5v-.2c0-.1.1-.2.1-.3 0-.1-.1-.1-.1-.2v-.3c0-.2 0-.4-.1-.5-.4-.7-1.2-.9-2-.8-.2 0-.3.1-.4.2-.2.1-.1.2-.3.2-.1 0-.2.1-.2.2v.3"/></g><g><path class="st2" d="M69.4-48.7v.2c-.1.1-.1.1-.2.1-.1.1-.1.3-.1.4-.2.1 0 .2 0 .3v.2c0 .1 0 .3.1.4.1.2.3.4.4.5.2.1.4.6.6.6.2 0 .4-.1.5-.1.2 0 .4 0 .6-.1.2-.1.1-.3.3-.5.1-.1.3 0 .4-.1.2-.1.3-.3.4-.5v-.2c0-.1.1-.2.1-.3 0-.1-.1-.1-.1-.2v-.3c0-.2 0-.4-.1-.5-.4-.7-1.2-.9-2-.8-.2 0-.3.1-.4.2-.2.1-.1.2-.3.2-.1 0-.2.1-.2.2v.3M61.8-48.7v.2c-.1.1-.1.1-.2.1-.1.1-.1.3-.1.4-.2.1 0 .2 0 .3v.2c0 .1 0 .3.1.4.1.2.3.4.4.5.2.1.4.6.6.6.2 0 .4-.1.5-.1.2 0 .4 0 .6-.1.2-.1.1-.3.3-.5.1-.1.3 0 .4-.1.2-.1.3-.3.4-.5v-.2c0-.1.1-.2.1-.3 0-.1-.1-.1-.1-.2v-.3c0-.2 0-.4-.1-.5-.4-.7-1.2-.9-2-.8-.2 0-.3.1-.4.2-.2.1-.1.2-.3.2-.1 0-.2.1-.2.2v.3M54.1-48.7v.2c-.1.1-.1.1-.2.1-.1.1-.1.3-.1.4-.2.1 0 .2 0 .3v.2c0 .1 0 .3.1.4.1.2.3.4.4.5.2.1.4.6.6.6.2 0 .4-.1.5-.1.2 0 .4 0 .6-.1.2-.1.1-.3.3-.5.1-.1.3 0 .4-.1.2-.1.3-.3.4-.5v-.2c0-.1.1-.2.1-.3 0-.1-.1-.1-.1-.2v-.3c0-.2 0-.4-.1-.5-.4-.7-1.2-.9-2-.8-.2 0-.3.1-.4.2-.2.1-.1.2-.3.2-.1 0-.2.1-.2.2v.3M46.5-48.7v.2c-.1.1-.1.1-.2.1-.1.1-.1.3-.1.4-.2.1 0 .2 0 .3v.2c0 .1 0 .3.1.4.1.2.3.4.4.5.2.1.4.6.6.6.2 0 .4-.1.5-.1.2 0 .4 0 .6-.1.2-.1.1-.3.3-.5.1-.1.3 0 .4-.1.2-.1.3-.3.4-.5v-.2c0-.1.1-.2.1-.3 0-.1-.1-.1-.1-.2v-.3c0-.2 0-.4-.1-.5-.4-.7-1.2-.9-2-.8-.2 0-.3.1-.4.2-.2.1-.1.2-.3.2-.1 0-.2.1-.2.2v.3M38.8-48.7v.2c-.1.1-.1.1-.2.1-.1.1-.1.3-.1.4-.2.1 0 .2 0 .3v.2c0 .1 0 .3.1.4.1.2.3.4.4.5.2.1.4.6.6.6.2 0 .4-.1.5-.1.2 0 .4 0 .6-.1.2-.1.1-.3.3-.5.1-.1.3 0 .4-.1.2-.1.3-.3.4-.5v-.2c0-.1.1-.2.1-.3 0-.1-.1-.1-.1-.2v-.3c0-.2 0-.4-.1-.5-.4-.7-1.2-.9-2-.8-.2 0-.3.1-.4.2-.2.1-.1.2-.3.2-.1 0-.2.1-.2.2v.3M31.1-48.7v.2c-.1.1-.1.1-.2.1-.1.1-.1.3-.1.4-.2.1 0 .2 0 .3v.2c0 .1 0 .3.1.4.1.2.3.4.4.5.2.1.4.6.6.6.2 0 .4-.1.5-.1.2 0 .4 0 .6-.1.2-.1.1-.3.3-.5.1-.1.3 0 .4-.1.2-.1.3-.3.4-.5v-.2c0-.1.1-.2.1-.3 0-.1-.1-.1-.1-.2v-.3c0-.2 0-.4-.1-.5-.4-.7-1.2-.9-2-.8-.2 0-.3.1-.4.2-.2.1-.1.2-.3.2-.1 0-.2.1-.2.2v.3M23.5-48.7v.2c-.1.1-.1.1-.2.1-.1.1-.1.3-.1.4-.2.1 0 .2 0 .3v.2c0 .1 0 .3.1.4.1.2.3.4.4.5.2.1.4.6.6.6.2 0 .4-.1.5-.1.2 0 .4 0 .6-.1.2-.1.1-.3.3-.5.1-.1.3 0 .4-.1.2-.1.3-.3.4-.5v-.2c0-.1.1-.2.1-.3 0-.1-.1-.1-.1-.2v-.3c0-.2 0-.4-.1-.5-.4-.7-1.2-.9-2-.8-.2 0-.3.1-.4.2-.2.1-.1.2-.3.2-.1 0-.2.1-.2.2v.3M15.8-48.7v.2c-.1.1-.1.1-.2.1-.1.1-.1.3-.1.4-.2.1 0 .2 0 .3v.2c0 .1 0 .3.1.4.1.2.3.4.4.5.2.1.4.6.6.6.2 0 .4-.1.5-.1.2 0 .4 0 .6-.1.2-.1.1-.3.3-.5.1-.1.3 0 .4-.1.2-.1.3-.3.4-.5v-.2c0-.1.1-.2.1-.3 0-.1-.1-.1-.1-.2v-.3c0-.2 0-.4-.1-.5-.4-.7-1.2-.9-2-.8-.2 0-.3.1-.4.2-.2.1-.1.2-.3.2-.1 0-.2.1-.2.2v.3M8.2-48.7v.2c-.1.1-.2.1-.2.1-.1.1-.1.3-.1.4-.2.1 0 .2 0 .3v.2c0 .1 0 .3.1.4.1.2.3.4.4.5.1.2.3.6.5.6s.4-.1.5-.1c.2 0 .4 0 .6-.1.2-.1.1-.3.3-.5.1-.1.3 0 .4-.1.2-.1.3-.3.4-.5v-.2c0-.1.1-.2.1-.3 0-.1-.1-.1-.1-.2v-.3c0-.2 0-.4-.1-.5-.4-.7-1.2-.9-2-.8-.2 0-.3.1-.4.2-.2.1-.1.2-.3.2-.1 0-.2.1-.2.2.1.3.1.2.1.3-.1 0-.1 0 0 0M.5-48.7v.2c-.1.1-.1.1-.2.1-.1.1-.1.3-.1.4-.2.1 0 .2 0 .3v.2c0 .1 0 .3.1.4.1.2.3.4.4.5.2.2.3.6.6.6.2 0 .4-.1.5-.1.2 0 .4 0 .6-.1.2-.1.1-.3.3-.5.1-.1.3 0 .4-.1.2-.1.3-.3.4-.5v-.2c0-.1.1-.2.1-.3 0-.1-.1-.1-.1-.2v-.3c0-.2 0-.4-.1-.5-.4-.7-1.2-.9-2-.8-.2 0-.3.1-.4.2-.2.1-.1.2-.3.2-.1 0-.2.1-.2.2v.3"/></g><g><path class="st2" d="M69.4-41v.2c-.1.1-.1.1-.2.1-.1.1-.1.3-.1.4-.2.1 0 .2 0 .3v.2c0 .1 0 .3.1.4.1.2.3.4.4.5.2.1.4.6.6.6.2 0 .4-.1.5-.1.2 0 .4 0 .6-.1.2-.1.1-.3.3-.5.1-.1.3 0 .4-.1.2-.1.3-.3.4-.5v-.2c0-.1.1-.2.1-.3 0-.1-.1-.1-.1-.2v-.3c0-.2 0-.4-.1-.5-.4-.7-1.2-.9-2-.8-.2 0-.3.1-.4.2-.2.1-.1.2-.3.2-.1 0-.2.1-.2.2v.3M61.8-41v.2c-.1.1-.1.1-.2.1-.1.1-.1.3-.1.4-.2.1 0 .2 0 .3v.2c0 .1 0 .3.1.4.1.2.3.4.4.5.2.1.4.6.6.6.2 0 .4-.1.5-.1.2 0 .4 0 .6-.1.2-.1.1-.3.3-.5.1-.1.3 0 .4-.1.2-.1.3-.3.4-.5v-.2c0-.1.1-.2.1-.3 0-.1-.1-.1-.1-.2v-.3c0-.2 0-.4-.1-.5-.4-.7-1.2-.9-2-.8-.2 0-.3.1-.4.2-.2.1-.1.2-.3.2-.1 0-.2.1-.2.2v.3M54.1-41v.2c-.1.1-.1.1-.2.1-.1.1-.1.3-.1.4-.2.1 0 .2 0 .3v.2c0 .1 0 .3.1.4.1.2.3.4.4.5.2.1.4.6.6.6.2 0 .4-.1.5-.1.2 0 .4 0 .6-.1.2-.1.1-.3.3-.5.1-.1.3 0 .4-.1.2-.1.3-.3.4-.5v-.2c0-.1.1-.2.1-.3 0-.1-.1-.1-.1-.2v-.3c0-.2 0-.4-.1-.5-.4-.7-1.2-.9-2-.8-.2 0-.3.1-.4.2-.2.1-.1.2-.3.2-.1 0-.2.1-.2.2v.3M46.5-41v.2c-.1.1-.1.1-.2.1-.1.1-.1.3-.1.4-.2.1 0 .2 0 .3v.2c0 .1 0 .3.1.4.1.2.3.4.4.5.2.1.4.6.6.6.2 0 .4-.1.5-.1.2 0 .4 0 .6-.1.2-.1.1-.3.3-.5.1-.1.3 0 .4-.1.2-.1.3-.3.4-.5v-.2c0-.1.1-.2.1-.3 0-.1-.1-.1-.1-.2v-.3c0-.2 0-.4-.1-.5-.4-.7-1.2-.9-2-.8-.2 0-.3.1-.4.2-.2.1-.1.2-.3.2-.1 0-.2.1-.2.2v.3M38.8-41v.2c-.1.1-.1.1-.2.1-.1.1-.1.3-.1.4-.2.1 0 .2 0 .3v.2c0 .1 0 .3.1.4.1.2.3.4.4.5.2.1.4.6.6.6.2 0 .4-.1.5-.1.2 0 .4 0 .6-.1.2-.1.1-.3.3-.5.1-.1.3 0 .4-.1.2-.1.3-.3.4-.5v-.2c0-.1.1-.2.1-.3 0-.1-.1-.1-.1-.2v-.3c0-.2 0-.4-.1-.5-.4-.7-1.2-.9-2-.8-.2 0-.3.1-.4.2-.2.1-.1.2-.3.2-.1 0-.2.1-.2.2v.3M31.1-41v.2c-.1.1-.1.1-.2.1-.1.1-.1.3-.1.4-.2.1 0 .2 0 .3v.2c0 .1 0 .3.1.4.1.2.3.4.4.5.2.1.4.6.6.6.2 0 .4-.1.5-.1.2 0 .4 0 .6-.1.2-.1.1-.3.3-.5.1-.1.3 0 .4-.1.2-.1.3-.3.4-.5v-.2c0-.1.1-.2.1-.3 0-.1-.1-.1-.1-.2v-.3c0-.2 0-.4-.1-.5-.4-.7-1.2-.9-2-.8-.2 0-.3.1-.4.2-.2.1-.1.2-.3.2-.1 0-.2.1-.2.2v.3M23.5-41v.2c-.1.1-.1.1-.2.1-.1.1-.1.3-.1.4-.2.1 0 .2 0 .3v.2c0 .1 0 .3.1.4.1.2.3.4.4.5.2.1.4.6.6.6.2 0 .4-.1.5-.1.2 0 .4 0 .6-.1.2-.1.1-.3.3-.5.1-.1.3 0 .4-.1.2-.1.3-.3.4-.5v-.2c0-.1.1-.2.1-.3 0-.1-.1-.1-.1-.2v-.3c0-.2 0-.4-.1-.5-.4-.7-1.2-.9-2-.8-.2 0-.3.1-.4.2-.2.1-.1.2-.3.2-.1 0-.2.1-.2.2v.3M15.8-41v.2c-.1.1-.1.1-.2.1-.1.1-.1.3-.1.4-.2.1 0 .2 0 .3v.2c0 .1 0 .3.1.4.1.2.3.4.4.5.2.1.4.6.6.6.2 0 .4-.1.5-.1.2 0 .4 0 .6-.1.2-.1.1-.3.3-.5.1-.1.3 0 .4-.1.2-.1.3-.3.4-.5v-.2c0-.1.1-.2.1-.3 0-.1-.1-.1-.1-.2v-.3c0-.2 0-.4-.1-.5-.4-.7-1.2-.9-2-.8-.2 0-.3.1-.4.2-.2.1-.1.2-.3.2-.1 0-.2.1-.2.2v.3M8.2-41v.2c-.1 0-.2 0-.2.1-.1.1-.1.3-.1.4-.2.1 0 .2 0 .3v.2c0 .1 0 .3.1.4.1.2.3.4.4.5.2.1.4.6.6.6.2 0 .4-.1.5-.1.2 0 .4 0 .6-.1.2-.1.1-.3.3-.5.1-.1.3 0 .4-.1.2-.1.3-.3.4-.5v-.2c0-.1.1-.2.1-.3 0-.1-.1-.1-.1-.2v-.3c0-.2 0-.4-.1-.5-.4-.7-1.2-.9-2-.8-.2 0-.3.1-.4.2-.2.1-.1.2-.3.2-.1 0-.2.1-.2.2v.3c-.1 0-.1 0 0 0M.5-41v.2c-.1.1-.1.1-.2.1-.1.1-.1.3-.1.4-.2.1 0 .2 0 .3v.2c0 .1 0 .3.1.4.1.2.3.4.4.5.2.1.4.6.6.6.2 0 .4-.1.5-.1.2 0 .4 0 .6-.1.2-.1.1-.3.3-.5h.4c.2-.1.3-.3.4-.5v-.2c0-.1.1-.2.1-.3 0-.1-.1-.1-.1-.2v-.3c0-.2 0-.4-.1-.5-.4-.7-1.2-.9-2-.8-.2 0-.3.1-.4.2-.2.1-.1.2-.3.2-.1 0-.2.1-.2.2v.2"/></g><g><path class="st2" d="M69.4-33.4v.2c-.1.1-.1.1-.2.1-.1.1-.1.3-.1.4-.2.1 0 .2 0 .3v.2c0 .1 0 .3.1.4.1.2.3.4.4.5.2.1.4.6.6.6.2 0 .4-.1.5-.1.2 0 .4 0 .6-.1.2-.1.1-.3.3-.5.1-.1.3 0 .4-.1.2-.1.3-.3.4-.5v-.2c0-.1.1-.2.1-.3 0-.1-.1-.1-.1-.2v-.3c0-.2 0-.4-.1-.5-.4-.7-1.2-.9-2-.8-.2 0-.3.1-.4.2-.2.1-.1.2-.3.2-.1 0-.2.1-.2.2v.3M61.8-33.4v.2c-.1.1-.1.1-.2.1-.1.1-.1.3-.1.4-.2.1 0 .2 0 .3v.2c0 .1 0 .3.1.4.1.2.3.4.4.5.2.1.4.6.6.6.2 0 .4-.1.5-.1.2 0 .4 0 .6-.1.2-.1.1-.3.3-.5.1-.1.3 0 .4-.1.2-.1.3-.3.4-.5v-.2c0-.1.1-.2.1-.3 0-.1-.1-.1-.1-.2v-.3c0-.2 0-.4-.1-.5-.4-.7-1.2-.9-2-.8-.2 0-.3.1-.4.2-.2.1-.1.2-.3.2-.1 0-.2.1-.2.2v.3M54.1-33.4v.2c-.1.1-.1.1-.2.1-.1.1-.1.3-.1.4-.2.1 0 .2 0 .3v.2c0 .1 0 .3.1.4.1.2.3.4.4.5.2.1.4.6.6.6.2 0 .4-.1.5-.1.2 0 .4 0 .6-.1.2-.1.1-.3.3-.5.1-.1.3 0 .4-.1.2-.1.3-.3.4-.5v-.2c0-.1.1-.2.1-.3 0-.1-.1-.1-.1-.2v-.3c0-.2 0-.4-.1-.5-.4-.7-1.2-.9-2-.8-.2 0-.3.1-.4.2-.2.1-.1.2-.3.2-.1 0-.2.1-.2.2v.3M46.5-33.4v.2c-.1.1-.1.1-.2.1-.1.1-.1.3-.1.4-.2.1 0 .2 0 .3v.2c0 .1 0 .3.1.4.1.2.3.4.4.5.2.1.4.6.6.6.2 0 .4-.1.5-.1.2 0 .4 0 .6-.1.2-.1.1-.3.3-.5.1-.1.3 0 .4-.1.2-.1.3-.3.4-.5v-.2c0-.1.1-.2.1-.3 0-.1-.1-.1-.1-.2v-.3c0-.2 0-.4-.1-.5-.4-.7-1.2-.9-2-.8-.2 0-.3.1-.4.2-.2.1-.1.2-.3.2-.1 0-.2.1-.2.2v.3M38.8-33.4v.2c-.1.1-.1.1-.2.1-.1.1-.1.3-.1.4-.2.1 0 .2 0 .3v.2c0 .1 0 .3.1.4.1.2.3.4.4.5.2.1.4.6.6.6.2 0 .4-.1.5-.1.2 0 .4 0 .6-.1.2-.1.1-.3.3-.5.1-.1.3 0 .4-.1.2-.1.3-.3.4-.5v-.2c0-.1.1-.2.1-.3 0-.1-.1-.1-.1-.2v-.3c0-.2 0-.4-.1-.5-.4-.7-1.2-.9-2-.8-.2 0-.3.1-.4.2-.2.1-.1.2-.3.2-.1 0-.2.1-.2.2v.3M31.1-33.4v.2c-.1.1-.1.1-.2.1-.1.1-.1.3-.1.4-.2.1 0 .2 0 .3v.2c0 .1 0 .3.1.4.1.2.3.4.4.5.2.1.4.6.6.6.2 0 .4-.1.5-.1.2 0 .4 0 .6-.1.2-.1.1-.3.3-.5.1-.1.3 0 .4-.1.2-.1.3-.3.4-.5v-.2c0-.1.1-.2.1-.3 0-.1-.1-.1-.1-.2v-.3c0-.2 0-.4-.1-.5-.4-.7-1.2-.9-2-.8-.2 0-.3.1-.4.2-.2.1-.1.2-.3.2-.1 0-.2.1-.2.2v.3M23.5-33.4v.2c-.1.1-.1.1-.2.1-.1.1-.1.3-.1.4-.2.1 0 .2 0 .3v.2c0 .1 0 .3.1.4.1.2.3.4.4.5.2.1.4.6.6.6.2 0 .4-.1.5-.1.2 0 .4 0 .6-.1.2-.1.1-.3.3-.5.1-.1.3 0 .4-.1.2-.1.3-.3.4-.5v-.2c0-.1.1-.2.1-.3 0-.1-.1-.1-.1-.2v-.3c0-.2 0-.4-.1-.5-.4-.7-1.2-.9-2-.8-.2 0-.3.1-.4.2-.2.1-.1.2-.3.2-.1 0-.2.1-.2.2v.3M15.8-33.4v.2c-.1.1-.1.1-.2.1-.1.1-.1.3-.1.4-.2.1 0 .2 0 .3v.2c0 .1 0 .3.1.4.1.2.3.4.4.5.2.1.4.6.6.6.2 0 .4-.1.5-.1.2 0 .4 0 .6-.1.2-.1.1-.3.3-.5.1-.1.3 0 .4-.1.2-.1.3-.3.4-.5v-.2c0-.1.1-.2.1-.3 0-.1-.1-.1-.1-.2v-.3c0-.2 0-.4-.1-.5-.4-.7-1.2-.9-2-.8-.2 0-.3.1-.4.2-.2.1-.1.2-.3.2-.1 0-.2.1-.2.2v.3M8.2-33.4v.2c-.1.1-.2.1-.2.1-.1.1-.1.3-.1.4-.2.1 0 .2 0 .3v.2c0 .1 0 .3.1.4.1.2.3.4.4.5.2.1.4.6.6.6.2 0 .4-.1.5-.1.2 0 .4 0 .6-.1.2-.1.1-.3.3-.5.1-.1.3 0 .4-.1.2-.1.3-.3.4-.5v-.2c0-.1.1-.2.1-.3 0-.1-.1-.1-.1-.2v-.3c0-.2 0-.4-.1-.5-.4-.7-1.2-.9-2-.8-.2 0-.3.1-.4.2-.2.1-.1.2-.3.2-.1 0-.2.1-.2.2v.3c-.1 0-.1 0 0 0M.5-33.4v.2c-.1.1-.1.1-.2.1-.1.1-.1.3-.1.4-.2.1 0 .2 0 .3v.2c0 .1 0 .3.1.4.1.2.3.4.4.5.2.1.4.6.6.6.2 0 .4-.1.5-.1.2 0 .4 0 .6-.1.2-.1.1-.3.3-.5.1-.1.3 0 .4-.1.2-.1.3-.3.4-.5v-.2c0-.1.1-.2.1-.3 0-.1-.1-.1-.1-.2v-.3c0-.2 0-.4-.1-.5-.4-.7-1.2-.9-2-.8-.2 0-.3.1-.4.2-.2.1-.1.2-.3.2-.1 0-.2.1-.2.2v.3"/></g><g><path class="st2" d="M69.4-25.7v.2c-.1.1-.1.1-.2.1-.1.1-.1.3-.1.4-.2.1 0 .2 0 .3v.2c0 .1 0 .3.1.4.1.2.3.4.4.5.2.1.4.6.6.6.2 0 .4-.1.5-.1.2 0 .4 0 .6-.1.2-.1.1-.3.3-.5.1-.1.3 0 .4-.1.2-.1.3-.3.4-.5v-.2c0-.1.1-.2.1-.3 0-.1-.1-.1-.1-.2v-.3c0-.2 0-.4-.1-.5-.4-.7-1.2-.9-2-.8-.2 0-.3.1-.4.2-.2.1-.1.2-.3.2-.1 0-.2.1-.2.2v.3M61.8-25.7v.2c-.1.1-.1.1-.2.1-.1.1-.1.3-.1.4-.2.1 0 .2 0 .3v.2c0 .1 0 .3.1.4.1.2.3.4.4.5.2.1.4.6.6.6.2 0 .4-.1.5-.1.2 0 .4 0 .6-.1.2-.1.1-.3.3-.5.1-.1.3 0 .4-.1.2-.1.3-.3.4-.5v-.2c0-.1.1-.2.1-.3 0-.1-.1-.1-.1-.2v-.3c0-.2 0-.4-.1-.5-.4-.7-1.2-.9-2-.8-.2 0-.3.1-.4.2-.2.1-.1.2-.3.2-.1 0-.2.1-.2.2v.3M54.1-25.7v.2c-.1.1-.1.1-.2.1-.1.1-.1.3-.1.4-.2.1 0 .2 0 .3v.2c0 .1 0 .3.1.4.1.2.3.4.4.5.2.1.4.6.6.6.2 0 .4-.1.5-.1.2 0 .4 0 .6-.1.2-.1.1-.3.3-.5.1-.1.3 0 .4-.1.2-.1.3-.3.4-.5v-.2c0-.1.1-.2.1-.3 0-.1-.1-.1-.1-.2v-.3c0-.2 0-.4-.1-.5-.4-.7-1.2-.9-2-.8-.2 0-.3.1-.4.2-.2.1-.1.2-.3.2-.1 0-.2.1-.2.2v.3M46.5-25.7v.2c-.1.1-.1.1-.2.1-.1.1-.1.3-.1.4-.2.1 0 .2 0 .3v.2c0 .1 0 .3.1.4.1.2.3.4.4.5.2.1.4.6.6.6.2 0 .4-.1.5-.1.2 0 .4 0 .6-.1.2-.1.1-.3.3-.5.1-.1.3 0 .4-.1.2-.1.3-.3.4-.5v-.2c0-.1.1-.2.1-.3 0-.1-.1-.1-.1-.2v-.3c0-.2 0-.4-.1-.5-.4-.7-1.2-.9-2-.8-.2 0-.3.1-.4.2-.2.1-.1.2-.3.2-.1 0-.2.1-.2.2v.3M38.8-25.7v.2c-.1.1-.1.1-.2.1-.1.1-.1.3-.1.4-.2.1 0 .2 0 .3v.2c0 .1 0 .3.1.4.1.2.3.4.4.5.2.1.4.6.6.6.2 0 .4-.1.5-.1.2 0 .4 0 .6-.1.2-.1.1-.3.3-.5.1-.1.3 0 .4-.1.2-.1.3-.3.4-.5v-.2c0-.1.1-.2.1-.3 0-.1-.1-.1-.1-.2v-.3c0-.2 0-.4-.1-.5-.4-.7-1.2-.9-2-.8-.2 0-.3.1-.4.2-.2.1-.1.2-.3.2-.1 0-.2.1-.2.2v.3M31.1-25.7v.2c-.1.1-.1.1-.2.1-.1.1-.1.3-.1.4-.2.1 0 .2 0 .3v.2c0 .1 0 .3.1.4.1.2.3.4.4.5.2.1.4.6.6.6.2 0 .4-.1.5-.1.2 0 .4 0 .6-.1.2-.1.1-.3.3-.5.1-.1.3 0 .4-.1.2-.1.3-.3.4-.5v-.2c0-.1.1-.2.1-.3 0-.1-.1-.1-.1-.2v-.3c0-.2 0-.4-.1-.5-.4-.7-1.2-.9-2-.8-.2 0-.3.1-.4.2-.2.1-.1.2-.3.2-.1 0-.2.1-.2.2v.3M23.5-25.7v.2c-.1.1-.1.1-.2.1-.1.1-.1.3-.1.4-.2.1 0 .2 0 .3v.2c0 .1 0 .3.1.4.1.2.3.4.4.5.2.1.4.6.6.6.2 0 .4-.1.5-.1.2 0 .4 0 .6-.1.2-.1.1-.3.3-.5.1-.1.3 0 .4-.1.2-.1.3-.3.4-.5v-.2c0-.1.1-.2.1-.3 0-.1-.1-.1-.1-.2v-.3c0-.2 0-.4-.1-.5-.4-.7-1.2-.9-2-.8-.2 0-.3.1-.4.2-.2.1-.1.2-.3.2-.1 0-.2.1-.2.2v.3M15.8-25.7v.2c-.1.1-.1.1-.2.1-.1.1-.1.3-.1.4-.2.1 0 .2 0 .3v.2c0 .1 0 .3.1.4.1.2.3.4.4.5.2.1.4.6.6.6.2 0 .4-.1.5-.1.2 0 .4 0 .6-.1.2-.1.1-.3.3-.5.1-.1.3 0 .4-.1.2-.1.3-.3.4-.5v-.2c0-.1.1-.2.1-.3 0-.1-.1-.1-.1-.2v-.3c0-.2 0-.4-.1-.5-.4-.7-1.2-.9-2-.8-.2 0-.3.1-.4.2-.2.1-.1.2-.3.2-.1 0-.2.1-.2.2v.3M8.2-25.7v.2c-.1.1-.2 0-.2.1-.1.1-.1.3-.1.4-.2.1 0 .2 0 .3v.2c0 .1 0 .3.1.4 0 .1.2.3.3.5.2.1.4.6.6.6.2 0 .4-.1.5-.1.2 0 .4 0 .6-.1.2-.1.1-.3.3-.5.1-.1.3 0 .4-.1.2-.1.3-.3.4-.5v-.2c0-.1.1-.2.1-.3 0-.1-.1-.1-.1-.2v-.3c0-.2 0-.4-.1-.5-.4-.7-1.2-.9-2-.8-.2 0-.3.1-.4.2-.2.1-.1.2-.3.2-.1 0-.2.1-.2.2.1.2.1.2.1.3-.1 0-.1 0 0 0M.5-25.7v.2c-.1.1-.1.1-.2.1-.1.1-.1.3-.1.4-.2.1 0 .2 0 .3v.2c0 .1 0 .3.1.4.1.2.3.4.4.5.2.1.3.5.6.6.2 0 .4-.1.5-.1.2 0 .4 0 .6-.1.2-.1.1-.3.3-.5.1-.1.3 0 .4-.1.2-.1.3-.3.4-.5v-.2c0-.1.1-.2.1-.3 0-.1-.1-.1-.1-.2v-.3c0-.2 0-.4-.1-.5-.4-.7-1.2-.9-2-.8-.2 0-.3.1-.4.2-.2.1-.1.2-.3.2-.1 0-.2.1-.2.2v.3"/></g><g><path class="st2" d="M69.4-18.1v.2c-.1.1-.1.1-.2.1-.1.1-.1.3-.1.4-.2.1 0 .2 0 .3v.2c0 .1 0 .3.1.4.1.2.3.4.4.5.2.1.4.6.6.6.2 0 .4-.1.5-.1.2 0 .4 0 .6-.1.2-.1.1-.3.3-.5.1-.1.3 0 .4-.1.2-.1.3-.3.4-.5v-.2c0-.1.1-.2.1-.3 0-.1-.1-.1-.1-.2v-.3c0-.2 0-.4-.1-.5-.4-.7-1.2-.9-2-.8-.2 0-.3.1-.4.2-.2.1-.1.2-.3.2-.1 0-.2.1-.2.2v.3c0 .1 0 0 0 0M61.8-18.1v.2c-.1.1-.1.1-.2.1-.1.1-.1.3-.1.4-.2.1 0 .2 0 .3v.2c0 .1 0 .3.1.4.1.2.3.4.4.5.2.1.4.6.6.6.2 0 .4-.1.5-.1.2 0 .4 0 .6-.1.2-.1.1-.3.3-.5.1-.1.3 0 .4-.1.2-.1.3-.3.4-.5v-.2c0-.1.1-.2.1-.3 0-.1-.1-.1-.1-.2v-.3c0-.2 0-.4-.1-.5-.4-.7-1.2-.9-2-.8-.2 0-.3.1-.4.2-.2.1-.1.2-.3.2-.1 0-.2.1-.2.2v.3c0 .1 0 0 0 0M54.1-18.1v.2c-.1.1-.1.1-.2.1-.1.1-.1.3-.1.4-.2.1 0 .2 0 .3v.2c0 .1 0 .3.1.4.1.2.3.4.4.5.2.1.4.6.6.6.2 0 .4-.1.5-.1.2 0 .4 0 .6-.1.2-.1.1-.3.3-.5.1-.1.3 0 .4-.1.2-.1.3-.3.4-.5v-.2c0-.1.1-.2.1-.3 0-.1-.1-.1-.1-.2v-.3c0-.2 0-.4-.1-.5-.4-.7-1.2-.9-2-.8-.2 0-.3.1-.4.2-.2.1-.1.2-.3.2-.1 0-.2.1-.2.2v.3c0 .1 0 0 0 0M46.5-18.1v.2c-.1.1-.1.1-.2.1-.1.1-.1.3-.1.4-.2.1 0 .2 0 .3v.2c0 .1 0 .3.1.4.1.2.3.4.4.5.2.1.4.6.6.6.2 0 .4-.1.5-.1.2 0 .4 0 .6-.1.2-.1.1-.3.3-.5.1-.1.3 0 .4-.1.2-.1.3-.3.4-.5v-.2c0-.1.1-.2.1-.3 0-.1-.1-.1-.1-.2v-.3c0-.2 0-.4-.1-.5-.4-.7-1.2-.9-2-.8-.2 0-.3.1-.4.2-.2.1-.1.2-.3.2-.1 0-.2.1-.2.2v.3c0 .1 0 0 0 0M38.8-18.1v.2c-.1.1-.1.1-.2.1-.1.1-.1.3-.1.4-.2.1 0 .2 0 .3v.2c0 .1 0 .3.1.4.1.2.3.4.4.5.2.1.4.6.6.6.2 0 .4-.1.5-.1.2 0 .4 0 .6-.1.2-.1.1-.3.3-.5.1-.1.3 0 .4-.1.2-.1.3-.3.4-.5v-.2c0-.1.1-.2.1-.3 0-.1-.1-.1-.1-.2v-.3c0-.2 0-.4-.1-.5-.4-.7-1.2-.9-2-.8-.2 0-.3.1-.4.2-.2.1-.1.2-.3.2-.1 0-.2.1-.2.2v.3c0 .1 0 0 0 0M31.1-18.1v.2c-.1.1-.1.1-.2.1-.1.1-.1.3-.1.4-.2.1 0 .2 0 .3v.2c0 .1 0 .3.1.4.1.2.3.4.4.5.2.1.4.6.6.6.2 0 .4-.1.5-.1.2 0 .4 0 .6-.1.2-.1.1-.3.3-.5.1-.1.3 0 .4-.1.2-.1.3-.3.4-.5v-.2c0-.1.1-.2.1-.3 0-.1-.1-.1-.1-.2v-.3c0-.2 0-.4-.1-.5-.4-.7-1.2-.9-2-.8-.2 0-.3.1-.4.2-.2.1-.1.2-.3.2-.1 0-.2.1-.2.2v.3c0 .1 0 0 0 0M23.5-18.1v.2c-.1.1-.1.1-.2.1-.1.1-.1.3-.1.4-.2.1 0 .2 0 .3v.2c0 .1 0 .3.1.4.1.2.3.4.4.5.2.1.4.6.6.6.2 0 .4-.1.5-.1.2 0 .4 0 .6-.1.2-.1.1-.3.3-.5.1-.1.3 0 .4-.1.2-.1.3-.3.4-.5v-.2c0-.1.1-.2.1-.3 0-.1-.1-.1-.1-.2v-.3c0-.2 0-.4-.1-.5-.4-.7-1.2-.9-2-.8-.2 0-.3.1-.4.2-.2.1-.1.2-.3.2-.1 0-.2.1-.2.2v.3c0 .1 0 0 0 0M15.8-18.1v.2c-.1.1-.1.1-.2.1-.1.1-.1.3-.1.4-.2.1 0 .2 0 .3v.2c0 .1 0 .3.1.4.1.2.3.4.4.5.2.1.4.6.6.6.2 0 .4-.1.5-.1.2 0 .4 0 .6-.1.2-.1.1-.3.3-.5.1-.1.3 0 .4-.1.2-.1.3-.3.4-.5v-.2c0-.1.1-.2.1-.3 0-.1-.1-.1-.1-.2v-.3c0-.2 0-.4-.1-.5-.4-.7-1.2-.9-2-.8-.2 0-.3.1-.4.2-.2.1-.1.2-.3.2-.1 0-.2.1-.2.2v.3c0 .1 0 0 0 0M8.2-18.1v.2c-.1.1-.2.1-.2.1-.1.1-.1.3-.1.4-.2.1 0 .2 0 .3v.2c0 .1 0 .3.1.4 0 .2.2.4.3.5.2.1.4.6.6.6.2 0 .4-.1.5-.1.2 0 .4 0 .6-.1.2-.1.1-.3.3-.5.1-.1.3 0 .4-.1.2-.1.3-.3.4-.5v-.2c0-.1.1-.2.1-.3 0-.1-.1-.1-.1-.2v-.3c0-.2 0-.4-.1-.5-.4-.7-1.2-.9-2-.8-.2 0-.3.1-.4.2-.2.1-.1.2-.3.2-.1 0-.2.1-.2.2.1.3.1.2.1.3-.1.1-.1 0 0 0M.5-18.1v.2c-.1.1-.1.1-.2.1-.1.1-.1.3-.1.4-.2.1 0 .2 0 .3v.2c0 .1 0 .3.1.4.1.2.3.4.4.5.2.1.4.6.6.6.2 0 .4-.1.5-.1.2 0 .4 0 .6-.1.2-.1.1-.3.3-.5.1 0 .3.1.4.1.2-.1.3-.3.4-.5v-.2c0-.1.1-.2.1-.3 0-.1-.1-.1-.1-.2v-.3c0-.2 0-.4-.1-.5-.4-.7-1.2-.9-2-.8-.2 0-.3.1-.4.2-.2.1-.1.2-.3.2-.1 0-.2.1-.2.2v.1c0 .1 0 0 0 0"/></g><g><path class="st2" d="M69.4-10.4v.2c-.1.1-.1.1-.2.1-.1.1-.1.3-.1.4-.2.1 0 .2 0 .3v.2c0 .1 0 .3.1.4.1.2.3.4.4.5.2.1.4.6.6.6.2 0 .4-.1.5-.1.2 0 .4 0 .6-.1.2-.1.1-.3.3-.5.1-.1.3 0 .4-.1.2-.1.3-.3.4-.5v-.2c0-.1.1-.2.1-.3 0-.1-.1-.1-.1-.2v-.3c0-.2 0-.4-.1-.5-.4-.7-1.2-.9-2-.8-.2 0-.3.1-.4.2-.2.1-.1.2-.3.2-.1 0-.2.1-.2.2v.3M61.8-10.4v.2c-.1.1-.1.1-.2.1-.1.1-.1.3-.1.4-.2.1 0 .2 0 .3v.2c0 .1 0 .3.1.4.1.2.3.4.4.5.2.1.4.6.6.6.2 0 .4-.1.5-.1.2 0 .4 0 .6-.1.2-.1.1-.3.3-.4.1-.1.3 0 .4-.1.2-.1.3-.3.4-.5v-.2c0-.1.1-.2.1-.3 0-.1-.1-.1-.1-.2v-.3c0-.2 0-.4-.1-.5-.4-.7-1.2-.9-2-.8-.2 0-.3.1-.4.2-.2.1-.1.2-.3.2-.1 0-.2.1-.2.2v.2M54.1-10.4v.2c-.1.1-.1.1-.2.1-.1.1-.1.3-.1.4-.2.1 0 .2 0 .3v.2c0 .1 0 .3.1.4.1.2.3.4.4.5.2.1.4.6.6.6.2 0 .4-.1.5-.1.2 0 .4 0 .6-.1.2-.1.1-.3.3-.5.1-.1.3 0 .4-.1.2-.1.3-.3.4-.5v-.2c0-.1.1-.2.1-.3 0-.1-.1-.1-.1-.2v-.3c0-.2 0-.4-.1-.5-.4-.7-1.2-.9-2-.8-.2 0-.3.1-.4.2-.2.1-.1.2-.3.2-.1 0-.2.1-.2.2v.3M46.5-10.4v.2c-.1.1-.1.1-.2.1-.1.1-.1.3-.1.4-.2.1 0 .2 0 .3v.2c0 .1 0 .3.1.4.1.2.3.4.4.5.2.1.4.6.6.6.2 0 .4-.1.5-.1.2 0 .4 0 .6-.1.2-.1.1-.3.3-.5.1-.1.3 0 .4-.1.2-.1.3-.3.4-.5v-.2c0-.1.1-.2.1-.3 0-.1-.1-.1-.1-.2v-.3c0-.2 0-.4-.1-.5-.4-.7-1.2-.9-2-.8-.2 0-.3.1-.4.2-.2.1-.1.2-.3.2-.1 0-.2.1-.2.2v.3M38.8-10.4v.2c-.1.1-.1.1-.2.1-.1.1-.1.3-.1.4-.2.1 0 .2 0 .3v.2c0 .1 0 .3.1.4.1.2.3.4.4.5.2.1.4.6.6.6.2 0 .4-.1.5-.1.2 0 .4 0 .6-.1.2-.1.1-.3.3-.4.1-.1.3 0 .4-.1.2-.1.3-.3.4-.5v-.2c0-.1.1-.2.1-.3 0-.1-.1-.1-.1-.2v-.3c0-.2 0-.4-.1-.5-.4-.7-1.2-.9-2-.8-.2 0-.3.1-.4.2-.2.1-.1.2-.3.2-.1 0-.2.1-.2.2v.2M31.1-10.4v.2c-.1.1-.1.1-.2.1-.1.1-.1.3-.1.4-.2.1 0 .2 0 .3v.2c0 .1 0 .3.1.4.1.2.3.4.4.5.2.1.4.6.6.6.2 0 .4-.1.5-.1.2 0 .4 0 .6-.1.2-.1.1-.3.3-.5.1-.1.3 0 .4-.1.2-.1.3-.3.4-.5v-.2c0-.1.1-.2.1-.3 0-.1-.1-.1-.1-.2v-.3c0-.2 0-.4-.1-.5-.4-.7-1.2-.9-2-.8-.2 0-.3.1-.4.2-.2.1-.1.2-.3.2-.1 0-.2.1-.2.2v.3M23.5-10.4v.2c-.1.1-.1.1-.2.1-.1.1-.1.3-.1.4-.2.1 0 .2 0 .3v.2c0 .1 0 .3.1.4.1.2.3.4.4.5.2.1.4.6.6.6.2 0 .4-.1.5-.1.2 0 .4 0 .6-.1.2-.1.1-.3.3-.5.1-.1.3 0 .4-.1.2-.1.3-.3.4-.5v-.2c0-.1.1-.2.1-.3 0-.1-.1-.1-.1-.2v-.3c0-.2 0-.4-.1-.5-.4-.7-1.2-.9-2-.8-.2 0-.3.1-.4.2-.2.1-.1.2-.3.2-.1 0-.2.1-.2.2v.3M15.8-10.4v.2c-.1.1-.1.1-.2.1-.1.1-.1.3-.1.4-.2.1 0 .2 0 .3v.2c0 .1 0 .3.1.4.1.2.3.4.4.5.2.1.4.6.6.6.2 0 .4-.1.5-.1.2 0 .4 0 .6-.1.2-.1.1-.3.3-.4.1-.1.3 0 .4-.1.2-.1.3-.3.4-.5v-.2c0-.1.1-.2.1-.3 0-.1-.1-.1-.1-.2v-.3c0-.2 0-.4-.1-.5-.4-.7-1.2-.9-2-.8-.2 0-.3.1-.4.2-.2.1-.1.2-.3.2-.1 0-.2.1-.2.2v.2M8.2-10.4v.2c-.1.1-.2 0-.2.1-.1.1-.1.3-.1.3-.2.1 0 .2 0 .3v.2c0 .1 0 .3.1.4 0 .2.2.4.3.6.2.1.4.6.6.6.2 0 .4-.1.5-.1.2 0 .4 0 .6-.1.2-.1.1-.3.3-.5.1-.1.3 0 .4-.1.2-.1.3-.3.4-.5v-.2c0-.1.1-.2.1-.3 0-.1-.1-.1-.1-.2v-.3c0-.2 0-.4-.1-.5-.4-.7-1.2-.9-2-.8-.2 0-.3.1-.4.2-.2.1-.1.2-.3.2-.1 0-.2.1-.2.2.1.2.1.2.1.3-.1 0-.1 0 0 0M.5-10.4v.2c-.1.1-.1.1-.2.1 0 .1-.1.3-.1.3-.2.1 0 .2 0 .3v.2c0 .1 0 .3.1.4.1.2.3.4.4.5.2.2.3.6.6.7.2 0 .4-.1.5-.1.2 0 .4 0 .6-.1.2-.1.1-.3.3-.4.1-.1.3 0 .4-.1.2-.1.3-.3.4-.5v-.2c0-.1.1-.2.1-.3 0-.1-.1-.1-.1-.2v-.3c0-.2 0-.4-.1-.5-.4-.7-1.2-.9-2-.8-.2 0-.3.1-.4.2-.2.1-.1.2-.3.2-.1 0-.2.1-.2.2v.2"/></g></g><g><path class="st2" d="M69.4-2.8v.2c-.1.1-.1.1-.2.1-.1.1-.1.3-.1.4-.2.1 0 .2 0 .3v.2c0 .1 0 .3.1.4.1.2.3.4.4.5.2.2.4.6.6.7.2 0 .4-.1.5-.1.2 0 .4 0 .6-.1.2-.1.1-.3.3-.5.1-.1.3 0 .4-.1.2-.1.3-.3.4-.5v-.2c0-.1.1-.2.1-.3 0-.1-.1-.1-.1-.2v-.3c0-.2 0-.4-.1-.5-.4-.7-1.2-.9-2-.8-.2 0-.3.1-.4.2-.2.1-.1.2-.3.2-.1 0-.2.1-.2.2v.2c0 .1 0 0 0 0M61.8-2.8v.2c-.1.1-.1.1-.2.1-.1.1-.1.3-.1.4-.2.1 0 .2 0 .3v.2c0 .1 0 .3.1.4 0 .2.2.4.4.5.2.1.4.6.6.6.2 0 .4-.1.5-.1.2 0 .4 0 .6-.1.2-.1.1-.3.3-.5.1-.1.3 0 .4-.1.2-.1.3-.3.4-.5v-.2c0-.1.1-.2.1-.3 0-.1-.1-.1-.1-.2v-.3c0-.2 0-.4-.1-.5-.4-.7-1.2-.9-2-.8-.2 0-.3.1-.4.2-.2.1-.1.2-.3.2-.1 0-.2.1-.2.2v.3c0 .1 0 0 0 0M54.1-2.8v.2c-.1.1-.1.1-.2.1-.1.1-.1.3-.1.4-.2.1 0 .2 0 .3v.2c0 .1 0 .3.1.4.1.2.2.4.4.5.2.1.4.6.6.6.2 0 .4-.1.5-.1.2 0 .4 0 .6-.1.2-.1.1-.3.3-.5.1-.1.3 0 .4-.1.2.1.3-.1.4-.3v-.2c0-.1.1-.2.1-.3 0-.1-.1-.1-.1-.2v-.3c0-.2 0-.4-.1-.5-.4-.7-1.2-.9-2-.8-.2 0-.3.1-.4.2-.2.1-.1.2-.3.2-.1 0-.2.1-.2.2v.1c0 .1 0 0 0 0M46.5-2.8v.2c-.1.1-.1.1-.2.1-.1.1-.1.3-.1.4-.2.1 0 .2 0 .3v.2c0 .1 0 .3.1.4.1.2.3.4.4.5.1.2.3.6.5.7.2 0 .4-.1.5-.1.2 0 .4 0 .6-.1.2-.1.1-.3.3-.5.1-.1.3 0 .4-.1.2-.1.3-.3.4-.5v-.2c0-.1.1-.2.1-.3 0-.1-.1-.1-.1-.2v-.3c0-.2 0-.4-.1-.5-.4-.7-1.2-.9-2-.8-.2 0-.3.1-.4.2-.2.1-.1.2-.3.2-.1 0-.2.1-.2.2.1.2.1.1.1.2M38.8-2.8v.2c-.1.1-.1.1-.2.1-.1.1-.1.3-.1.4-.2.1 0 .2 0 .3v.2c0 .1 0 .3.1.4 0 .2.2.4.4.5.2.1.4.6.6.6.2 0 .4-.1.5-.1.2 0 .4 0 .6-.1.2-.1.1-.3.3-.5.1-.1.3 0 .4-.1.2-.1.3-.3.4-.5v-.2c0-.1.1-.2.1-.3 0-.1-.1-.1-.1-.2v-.3c0-.2 0-.4-.1-.5-.4-.7-1.2-.9-2-.8-.2 0-.3.1-.4.2-.2.1-.1.2-.3.2-.1 0-.2.1-.2.2v.3c0 .1 0 0 0 0M31.1-2.8v.2c-.1.1-.1.1-.2.1-.1.1-.1.3-.1.4-.2.1 0 .2 0 .3v.2c0 .1 0 .3.1.4.1.2.2.4.4.5.2.1.4.6.6.6.2 0 .4-.1.5-.1.2 0 .4 0 .6-.1.2-.1.1-.3.3-.5.1-.1.3 0 .4-.1.2-.1.3-.3.4-.5v-.2c0-.1.1-.2.1-.3 0-.1-.1-.1-.1-.2v-.3c0-.2 0-.4-.1-.5-.4-.7-1.2-.9-2-.8-.2 0-.3.1-.4.2-.2.1-.1.2-.3.2-.1 0-.2.1-.2.2v.3c0 .1 0 0 0 0M23.5-2.8v.2c-.1.1-.1.1-.2.1-.1.1-.1.3-.1.4-.2.1 0 .2 0 .3v.2c0 .1 0 .3.1.4.1.2.3.4.4.5.1.2.3.6.6.7.2 0 .4-.1.5-.1.2 0 .4 0 .6-.1.2-.1.1-.3.3-.5.1-.1.3 0 .4-.1.2-.1.3-.3.4-.5v-.2c0-.1.1-.2.1-.3 0-.1-.1-.1-.1-.2v-.3c0-.2 0-.4-.1-.5-.4-.7-1.2-.9-2-.8-.2 0-.3.1-.4.2-.2.1-.1.2-.3.2-.1 0-.2.1-.2.2v.2c0 .1 0 0 0 0M15.8-2.8v.2c-.1.1-.1.1-.2.1-.1.1-.1.3-.1.4-.2.1 0 .2 0 .3v.2c0 .1 0 .3.1.4.1.2.2.4.4.5.2.1.4.6.6.6.2 0 .4-.1.5-.1.2 0 .4 0 .6-.1.2-.1.1-.3.3-.5.1-.1.3 0 .4-.1.2-.1.3-.3.4-.5v-.2c0-.1.1-.2.1-.3 0-.1-.1-.1-.1-.2v-.3c0-.2 0-.4-.1-.5-.4-.7-1.2-.9-2-.8-.2 0-.3.1-.4.2-.2.1-.1.2-.3.2-.1 0-.2.1-.2.2v.3c0 .1 0 0 0 0M8.2-2.8v.2c-.1.1-.2.1-.2.1-.1.1-.1.3-.1.4-.2.1 0 .2 0 .3v.2c0 .1 0 .3.1.4 0 .2.2.4.3.5.2.2.4.6.6.7.2 0 .4-.1.5-.1.2 0 .4 0 .6-.1.2-.1.1-.3.3-.5.1-.1.3 0 .4-.1.2-.1.3-.3.4-.5v-.2c0-.1.1-.2.1-.3 0-.1-.1-.1-.1-.2v-.3c0-.2 0-.4-.1-.5-.4-.7-1.2-.9-2-.8 0 .1-.2.2-.3.2-.2.1-.1.2-.3.3-.1 0-.2.1-.2.2v.1c-.1.1-.1 0 0 0M.5-2.8v.2c-.1.1-.1.1-.2.1 0 .1-.1.3-.1.4-.2.1 0 .2 0 .3v.2c0 .1 0 .3.1.4 0 .2.2.4.4.5.2.2.3.6.6.7.2 0 .4-.1.5-.1.2 0 .4 0 .6-.1.2-.1.1-.3.3-.5.1-.1.3 0 .4-.1.2 0 .3-.2.4-.4v-.2c0-.1.1-.2.1-.3 0-.1-.1-.1-.1-.2v-.3c0-.2 0-.4-.1-.5-.4-.7-1.2-.9-2-.8-.1 0-.2.1-.4.1-.1.1-.1.2-.3.3-.1 0-.2.1-.2.2v.1c0 .1 0 0 0 0"/></g></pattern><path d="M424.4 230.7c0-3.2-1.2-6.4-3-9.8l-.4-.9-.5-.9c-9-17-20.8-34.6-24.1-38.8v-.2c-.7-1.2-1.5-3.7-1.8-6.4-.4-3-.2-6-.4-7.6-.2-1.4-.9-2.3-1.9-3.8-1-1.4-2.3-3-3.6-4.8-1.9-2.7-3.9-5.5-5.5-7.8-.8-1.1-1.5-2.2-2-3-.5-.8-.8-1.2-.9-1.4-.7-1.3-1.4-2.2-1.8-2.9 0-.1-.1-.2-.1-.3l-.1-.3.1-.3c.2-1.1.5-3 .5-5.4v-.2-.2c0-6.6-2.7-17-14.7-23.9-3-1.7-5.6-3.3-8-4.8l-1.1-.7.9-.9c2.2-2.2 3.6-5.3 3.6-8.5v-.1c0-3.4-1.4-6.6-3.7-8.8l-.4-.4C321.8 55 275.8 34.8 225.2 34.8h-.2c-50.6 0-96.5 20.2-130.1 53l-.1.1c-2.4 2.3-3.9 5.5-3.9 9V97.2c0 2.3.7 4.5 1.9 6.4l.6.9-1 .5c-1.5.8-3.4 1.8-5.3 3-3.1 2-6.1 4.2-7.4 6.8-1 2.3-.9 3.4-1.8 5.6-.8 2-2.1 4.6-3.4 7-1.3 2.4-2.4 4.4-2.9 5.4-.6 1.3-.7 2.8-.7 4.4 0 1.7.2 3.5.3 4.6l.1.6-.5.4c-3.8 2.8-12.1 10.4-12.1 24.3 0 1.4.1 2.9.3 4.5l.1.4-.3.3c-4.5 5.6-24 30.2-29.9 45.4-.3.9-1.1 1.7-1.8 3.2-.7 1.4-1.3 3.2-1.4 5.6v.4c0 2.9.9 5.9 4.3 9l1.2 1.1.2.2c.2.1.3.2.5.4.3.2.8.6 1.5 1 4.5 2.8 13.9 9.5 18.5 20 0 .1.1.2.1.4.2.5.2.5.7 1 .4.3.2.1.5.2.4.1.7.1 1.3.2 1.5.2 3.7.4 4.2.4h.3c.2 0 .4-.1.6-.2l.6-.2.5.5.5.5c2.2 2.2 6.1 4.3 13.1 4.5 0 0 .1 0 .1-.1v-.1l-1.1-.6c-1.2-.9-3.2-3.2-5.4-8.8l-.3-.8.8-.4c4.5-2.4 11.1-5.4 18.7-7.3l.3-.1.3.2c2.1 1 4.1 2.2 5.3 3.6l.4.5-.2.6s-.5 1.4-1.1 3.7c-.6 2.3-1.1 5.6-1.1 9.3 0 2.3.2 4.7.8 7.1l.1.6-.5.4s-.3.2-.7.6c-.4.4-1.1.9-1.7 1.6-1.4 1.4-2.9 3.4-3.8 5.6l-.1.3-.3.2c-.3.2-.6.3-.9.5l-1 .5-.4-1c-.4-.9-.8-1.7-1.1-2.6-1.3-3.4-2-6.3-2.3-7.4l-.1-.4h-.1c-2.3 4.6-3 8.6-3 11.9 0 .6 0 1.2.1 1.8l.1 1.6-1.5-.6c-.2-.1-.5-.2-.8-.2-.1 0-.3 0-.5.1-.8.1-1.3.8-1.5 1.2-.3.5-.3.8-.3.9v.1c0 .1-.1.3-.1.6-.1.5-.2 1.2-.3 2.1-.2 1.8-.4 4.2-.4 6.7.1 4.6.5 9.9 3.9 13.5 5.2 5.2 14.4 14.6 14.9 15.2l.1.1c.1.1 1.3 1.2 3.4 2l1.2.4-.7 1.1c-1.4 2-2.1 4.4-2.2 6.9v.2c0 3.4 1.4 6.6 3.7 8.8l.4.4c28.8 28.1 67 47 109.4 51.7l.6.1.2.6c3 7.9 10.6 13.5 19.6 13.5 8.9 0 16.5-5.6 19.5-13.5l.2-.6.6-.1c42.6-4.6 81-23.5 110-51.8l.1-.1s1-1.1 2-2.8c1-1.7 2-3.8 2-6.2v-.1c-.1-2.4-.7-4.8-2-6.8l-.7-1.1 1.3-.4c2.4-.7 4-2 4.9-3.1.3-.4.5-.7.8-1.2.9-1.8 2.4-5.2 3.9-8.5s3.2-6.6 4.3-7.9c1.3-1.7 5.1-4.3 5.2-8.8v-.4c-.1-1.8-.8-3.4-1.5-4.8-.3-.7-.6-1.3-.9-1.7-.1-.1-.1-.2-.2-.3l-.3-.4.2-.5c.6-1.4 1.3-3.6 1.3-6.6 0-2.9-.6-6.4-2.6-10.4v.1c0 .1-.1.2-.1.4-.1.4-.2.9-.4 1.5-.3 1.2-.9 2.9-1.6 4.8-.6 1.6-1.3 3.2-2.2 4.8l-.5 1-.9-.7c-11.2-8.2-12.4-21.5-12.4-27.1 0-1.7.1-2.8.1-2.8l.1-.6.6-.2c4-1.6 8.2-2.2 12.2-2.2 3.3 0 6.5.4 9.3 1h.2l.2.1c.5.4 1 .7 1.4 1.1.2.2.5.4.8.5l.7.5-.8.6c-1.5 3.1-2.9 5.3-4.1 6.7-1 1.2-1.9 2-2.5 2.4-.3.2-.5.4-.7.5-.1 0-.1.1-.2.1h-.2.2c7.2-.6 11.9-2.5 15.1-4.6l.4-.2.4.1c.4.1.8.2 1.3.2h1c2.6 0 5.3-1.1 7.3-3.4 7.4-8.3 18.7-15.9 23.5-21 1.7-1.8 2.6-4 2.8-6.2l.1-.9z" fill="#ffcf01"/><path d="M407.1 208.7s-.7 2.9-8.8-2.4c0 0 4.9 6.3 8.4 7.2 3.7 1 1.7-3.8.4-4.8zm-7.4-11.9s-.1 3.5-6.9 1.1c0 0 3.3 5.1 8 6.1 4.9 1 1.6-4.3-1.1-7.2zm-2.8-4.4c-5.2-7-7.8-9.5-9.8-22.6-1.8-11.7-27.1 0-27.1 0-12.5 3.1-17.3-.1-19.1-2.5 0-.1-.5-.4-.2.2 6.9 15.2 21.9 7.3 21.9 7.3l2.8 2.8c-.7-1.6-.8-4-.3-7.4.6-.2 1.6-.6 2.7-.9.7.9.8 1.5.8 2.9.1 1.4-.7 3.2-.7 4.4 0 1.1.8 1.6.8 1.6 2.9-1.7 5-5.8 6.1-8.4.7.2 1.5.4 2.2.7-1.4 7.2-6.2 10.4-9 9.6-.1 0-.3-.1-.4-.1-8.8 4-3.6 5.1-3.6 5.1 7.3 0 13.9-5 13.9-5 2.4 1.2 5 7.1 5 7.1 2.7.3 7.3 2.7 7.3 2.7 4.5 4.4 6.7 2.5 6.7 2.5zM86.8 224.8c-.2-1.1-17.2 3.4-31.1 14.7 0 0-3.1 2.4-2.9 3.5.4 2.1 2.9.8 3.5.1 10.8-10.6 30.7-17.2 30.5-18.3zm198.7 105.6l4.9 10.4 6.4 11.3v.1l-17.2-19.1-3.7 1.7 13.7 29.3 3.9-1.8-5-10.8-5.2-9.6-1.1-1.8v-.1l17.4 19.4 3.6-1.7-13.7-29.3-4 2zM47.3 200.5c-1.6 2.6-2.9 4.8-4.2 7.3-1.4 2.7-3.7 7.1-4.7 9 2.6.5 5.4 0 8.4-2.2.3-8.4 8.4-26 8.4-26-2.3 2.9-5.8 8.4-7.9 11.9zm14 47.2s-2.5 2.1-2.4 3c.3 1.8 2.3.6 2.8.1 8.7-9.1 24.6-14.9 24.5-15.8-.2-1-13.8 3-24.9 12.7zM170 107.8l11.9-5.1-17.7-41.2-11.9 5.1.2.5 17.5 40.7zm90.1-32.4l10.4 29.8 11.8 4 14.4-42.5-12.2-4.1-8 23.6-10.4-29.8-11.8-4-14.4 42.5 12.2 4.1 8-23.6zm-51.4 22.5c.9 0 1.8 0 2.7-.1 13.3-1.2 22.4-11.1 22.4-24.1 0-.9 0-1.8-.1-2.7-1.2-12.6-12.4-20.7-24.2-20.7-.8 0-1.6 0-2.4.1-12 1.1-22.5 10.6-22.5 23 0 .7 0 1.4.1 2.1 1.1 13.5 11.1 22.4 24 22.4zm-.6-35.1c.4 0 .7-.1 1.1-.1 5.8 0 10.8 4.4 11.3 9.6 0 .4.1.9.1 1.3 0 6.4-4.5 11.3-10.3 11.8h-1.1c-5.8 0-10.8-4.4-11.4-11v-.8c-.1-5.2 4.4-10.3 10.3-10.8zm82.4 46.5c2 5.3 5.3 10 10.1 13.3 3.3 2.3 7.3 3.8 11.4 3.8.5 0 1 0 1.5-.1 4.8-.5 8.4-3.7 10.9-7.4 1.6-2.3 2.3-4.6 2.3-6.7 0-3.6-1.9-6.9-4.4-10l-1.9-2.3c-.7-.9-1.4-1.8-1.8-2.7-.2-.5-.3-1-.3-1.4 0-1.3 1-2 2.5-2 .8 0 1.8.3 2.7.9 2.2 1.5 3.5 3.8 4.2 6.4l.2.7 10.3-5.5-.2-.5c-2-4.2-5.6-8.5-9.5-11.2-3-2.1-6.3-3.1-9.4-3.1-4.7 0-9.1 2.3-12.2 6.8-1.8 2.6-2.6 5-2.6 7.1 0 3.8 2.4 6.9 5.3 10.5 1.2 1.4 3.2 3.8 3.2 5.6 0 .5-.1.9-.4 1.3-.7 1-1.6 1.4-2.6 1.4s-2.2-.4-3.2-1.1c-3.1-2.1-4.5-5.6-5.4-9.2l-.2-.7-10.7 5.5.2.6zm-149.1 18.9l20.4-16.7-7.1-8.7-10.4 8.5-21.3-26-10 8.2.4.5 28 34.2zm262.5 86.9c7.7 8.4 7.8 3 7.8 3-1.8 1.2-7.8-3-7.8-3zm21.5 15.6c0-3.8-1.5-7.4-3.5-11.2-9.1-17.3-21.2-35.5-24.7-39.8-.6-1-1.4-3.4-1.7-6.1-.3-2.9-.2-5.8-.4-7.6-.2-1.7-1.1-2.8-2.1-4.2-1-1.4-2.3-3-3.6-4.8-1.9-2.6-3.9-5.5-5.5-7.8s-2.8-4.1-2.9-4.3c-.8-1.3-1.5-2.4-1.7-2.8 0-.1-.1-.2-.1-.3.2-1.2.5-3.2.5-5.6v-.2c0-6.8-2.7-17.8-15.2-24.9-2.9-1.7-5.6-3.3-7.9-4.7 2.4-2.4 3.9-5.8 3.9-9.3V97c0-3.7-1.5-7.2-4.1-9.6l-.4-.4c-33.6-32.8-79.8-53.1-130.6-53.1h-.1-.1c-50.9 0-97 20.3-130.8 53.2l-.1.1c-2.6 2.5-4.2 5.9-4.2 9.7v.1c0 2.5.8 5 2.1 7.1-1.5.8-3.5 1.8-5.4 3-3.1 2-6.3 4.2-7.7 7.2-1.1 2.5-1 3.6-1.8 5.6-.7 1.9-2.1 4.5-3.3 6.8-1.3 2.3-2.4 4.3-2.9 5.4-.7 1.5-.8 3.1-.8 4.8 0 1.8.2 3.6.4 4.7-4 2.9-12.5 10.8-12.5 25.2 0 1.5.1 3 .3 4.6-4.5 5.7-24 30.2-30.1 45.7-.4 1.1-3.2 4-3.2 9.1v.1c-.1 3.2 1 6.7 4.6 10.1l1.2 1.1.2.2c.1.1.6.5 2.2 1.5 4.4 2.7 13.7 9.4 18.1 19.5 0 .1.1.3.2.5.2.3.3.7.9 1.3.5.4.6.3.8.4.5.1.9.2 1.5.3 1.7.2 4.3.4 4.3.4h.4c.3 0 .6-.1.9-.2.2.2.3.4.5.5 2.4 2.3 6.6 4.6 13.8 4.8.5 0 1-.4 1.1-.9.1-.5-.3-1-.9-1.2-.3-.1-2.9-1.4-5.8-8.8 4.5-2.4 10.9-5.4 18.4-7.2 2 1 3.9 2.1 4.9 3.4 0 0-3.9 9.9-1.5 20.7 0 0-4.7 3.3-6.6 8.3-.3.2-.6.3-.9.5-.4-.9-.7-1.7-1.1-2.5-1.6-4.2-2.3-7.6-2.3-7.6-.1-.4-.5-.8-.9-.8-.4-.1-.9.2-1.1.6-2.3 4.8-3.1 8.9-3.1 12.4 0 .6 0 1.2.1 1.8-.3-.1-.7-.2-1.2-.2-.2 0-.4 0-.7.1-1.2.2-1.9 1.1-2.2 1.7-.3.6-.4 1-.5 1.2v.1s-.9 4.6-.9 9.8c.1 4.7.5 10.3 4.2 14.2 5.4 5.4 15 15.3 15 15.3l.1.1c.1.1 1.5 1.4 3.7 2.2-1.5 2.1-2.3 4.8-2.3 7.5v.1c0 3.7 1.5 7.2 4.1 9.6l.4.4c29 28.3 67.3 47.3 110 52 3.1 8.3 11.1 14.2 20.5 14.2s17.3-5.9 20.5-14.1c42.8-4.6 81.4-23.6 110.6-52.2l.1-.1c.1-.1 1-1.2 2.1-2.9 1-1.7 2.1-4 2.1-6.7v-.1c-.1-2.6-.8-5.2-2.2-7.3 2.6-.8 4.3-2.2 5.4-3.5.4-.5.6-.8.9-1.4 1-1.9 2.4-5.2 3.9-8.5s3.2-6.6 4.2-7.7c1-1.4 5.3-4.3 5.4-9.4v-.5c-.1-2-.9-3.7-1.6-5.2-.3-.7-.7-1.3-.9-1.7-.1-.1-.1-.2-.2-.3.6-1.5 1.4-3.8 1.4-7 0-3-.7-6.7-2.7-10.9-.2-.4-.6-.6-1.1-.6-.4.1-.8.4-.9.8 0 0-.6 3-2 6.7-.6 1.5-1.3 3.1-2.1 4.7-14-10.2-11.9-29-11.9-29 7.2-2.9 14.8-2.4 20.9-1.2.5.4 1 .7 1.5 1.1.3.2.5.4.8.5-1.4 3.1-2.8 5.1-4 6.5-1 1.2-1.8 1.8-2.3 2.2-.3.2-.5.3-.6.4-.1 0-.1.1-.1.1-.5.2-.8.7-.7 1.2.1.5.5.8 1 .8h.1c7.3-.6 12.3-2.6 15.6-4.7.5.1.9.2 1.4.2h1.1c2.9 0 5.8-1.2 8-3.7 7.2-8.1 18.5-15.8 23.4-21 1.9-2.8 3-5.6 3-8.5zM99.2 92.7l.3-.3c32.4-31.6 76.7-51.1 125.6-51.1h.2c48.9 0 93.2 19.5 125.6 51.1l.3.3c1.1 1.1 1.8 2.6 1.8 4.3 0 1.6-.6 3.1-1.8 4.2l-3.4 3.3c-.7.7-1 1.6-1 2.6 0 .3 0 .6.1.8.4 1.7.6 3.4.6 5.1 0 12.1-9.8 21.8-21.8 21.8-1.6 0-3.2-.2-4.7-.5h-.2c-.3-.1-.6-.1-.9-.1-1 0-1.9.4-2.6 1.1h-.1l-3 3c-1.1 1.1-2.6 1.9-4.3 1.9-1.7 0-3.2-.7-4.3-1.9-11.6-11.6-25.7-20.7-41.5-26.5-12.2-4.5-25.3-7-39-7s-26.8 2.5-39 7c-15.8 5.8-29.9 14.9-41.5 26.5-1.1 1.2-2.6 1.9-4.3 1.9-1.7 0-3.2-.7-4.3-1.9l-3-3-.1-.1c-.7-.7-1.6-1.1-2.6-1.1-.3 0-.6 0-.9.1h-.2c-1.5.3-3.1.5-4.7.5-12 0-21.8-9.8-21.8-21.8 0-1.8.2-3.5.6-5.1.1-.3.1-.5.1-.8 0-1-.3-1.9-1-2.6l-3.4-3.3c-1.1-1.1-1.8-2.6-1.8-4.2.2-1.6.9-3.2 2-4.2zm226 55.4s.3 9.6 7 13.4c-2.5-.1-11.4 1.3-7-13.4zM329 217c0 28.7-11.6 54.6-30.4 73.4-18.8 18.8-44.7 30.4-73.4 30.4-28.7 0-54.6-11.6-73.4-30.4-18.8-18.8-30.4-44.7-30.4-73.4 0-28.7 11.6-54.6 30.4-73.4 18.8-18.8 44.7-30.4 73.4-30.4 28.7 0 54.6 11.6 73.4 30.4 18.8 18.8 30.4 44.7 30.4 73.4zM71.2 264.3c-4.6-.7-7.3-2.3-9-3.9-.2-.2-.1-.2-.3-.3l.6-.4s1.1-.8 3.1-2c.4-.3.9-.5 1.4-.8 1.6 3.6 3 6 4.2 7.4zm7.4 10.3c1 3.7 3.2 9.9 6.8 14.4-.9.5-2.8 1.3-4.8 1.3-.8 0-1.7-.1-2.5-.5-.6-1.5-1.2-3.7-1.2-6.7.1-2.3.5-5.2 1.7-8.5zm14 22.2s-.6 1.2-.3 3.3c0 0-5.4-.9-6.6-3 0 0 .3 5.1 1.2 9 0 0-7.2-7.8-8.1-10.2 0 0 .6 9.9 3.6 15.3 0 0-7-5.1-6.5-19.2.8.4 1.6.7 2.4.9.4.1.7.2 1.1.2h.2c.4 0 .7.1 1 .1 3 0 5.5-1.2 6.5-1.8.6.1 1.2.1 1.7.1 3.1 0 5.2-1.3 6.3-2.7.4-.5.8-1 1-1.5 1.1.2 2.2.3 3.2.3 4.6 0 7.8-1.9 9.8-3.8 1.3-1.2 2.2-2.5 2.6-3.2 8-1.9 10-8.5 10-8.7l.1-.2v-.2c-1.2-18.1-9.2-25.9-9.4-26.1l-.3-.3-.4-.1c-3.6-.8-7.2-1.2-10.7-1.2-.8 0-1.6 0-2.5.1h-.6c-.8 0-1.6.1-2.4.2l-2.4.3c-.2 0-.4.1-.6.1-.8.1-1.5.2-2.3.4-.8.1-1.5.3-2.3.5-.2 0-.4.1-.6.1-.7.2-1.4.3-2.1.5l-2.1.6c-.2.1-.4.1-.5.2-.7.2-1.3.4-2 .6-.7.2-1.3.5-2 .7-.2.1-.3.1-.5.2-.6.2-1.2.5-1.8.7-.6.2-1.2.5-1.8.8-.1.1-.3.1-.4.2-.6.2-1.1.5-1.6.7-.5.3-1.1.5-1.6.8-.1.1-.3.1-.4.2-.5.2-.9.5-1.4.7H69c-.5.2-.9.5-1.3.7-.1.1-.2.1-.4.2-.4.2-.7.4-1.1.6 0 0-.1 0-.1.1-2.3 1.3-4 2.4-4.7 2.9l-5.9-.7c-.3-.7-.6-1.3-1-1.9-.1-.1-.1-.2-.2-.4-.3-.6-.7-1.2-1-1.8-.1-.1-.1-.2-.2-.3-.3-.6-.7-1.1-1.1-1.6 0 0 0-.1-.1-.1-.4-.6-.8-1.1-1.2-1.6-.1-.1-.1-.2-.2-.3l-1.2-1.5c0-.1-.1-.1-.1-.2-.4-.5-.8-1-1.3-1.4l-.1-.1c-.4-.5-.9-.9-1.3-1.4l-.2-.2-1.3-1.3 2.3-.8c3-9.9 13.2-10.2 13.2-10.2-1.2-7.5 1.8-13.5 1.8-13.5l-5.4 4.8c-13.3 1.1-20.9 5.6-25.1 9.5-1-1.3-1.5-2.4-1.8-3.6 0-.1 0-.2-.1-.3 0-.1-.1-.3-.1-.4 0-.1 0-.3-.1-.4v-.3-.7c0-1.9.6-3.6 1.3-4.8.3-.6.6-1.1.9-1.4.2-.3.4-.5.4-.5l.2-.2.1-.2c3-8 10.6-19.5 17.5-28.9 6.8-9.4 12.9-16.8 12.9-16.8l.4-.5-.1-.6c-.3-1.9-.4-3.7-.4-5.4 0-7.9 3-13.4 6-17 1.5-1.8 3-3.1 4.1-4 .6-.4 1-.7 1.3-.9.3-.2.5-.3.5-.3l.8-.4-.6-8.6c4.7-8.2 8.4-18.2 9.3-20.6.8-.4 1.6-.8 2.3-1.3.2-.1.5-.3.7-.4l1.5-.9c.3-.2.5-.3.8-.5.4-.3.9-.5 1.3-.8.2-.2.5-.3.7-.5.4-.3.8-.5 1.2-.8.2-.1.4-.3.6-.4.4-.3.8-.5 1.1-.8.1-.1.3-.2.4-.3.9-.7 1.7-1.3 2.4-1.8l.8.8c-.4 1.8-.5 3.6-.5 5.4v.1c-3.1 1.6-6.5 3.1-10.2 4.4l-5.7 11.2s7.2-.6 9.3 9.6c0 0 4.4-6.2 11.4-9.8.3.4.6.9 1 1.3-3.1 2.2-6.2 5.4-7.6 10l2.7 1.2s4.7-3.8 10.3-6c1 .8 2.1 1.4 3.3 2.1-3.4 1.9-7.1 4.3-8.5 6.3l1.8 1.8s8.1-4.5 9.6 4.2-7.8 10.2-10.5 10.2c0 0 .3 3.3 3.6 6.6 0 0-7.2 5.7-17.4 0s-13.7-5-22.4-2.9c0 0-3.2 4.5-1.3 9.9-2 1.9-3 1.7-5.1 7.6-.9 3.8-4.8 6.5-4.8 6.5s10.5.9 19.2-8.7c0 0 6.6 7.2 16.5-5.1 0 0 7.8 6.9 20.4-.9 0 0-6 6.6-16.5 6.3 0 0 5.1 4.8 6.9 9.6 0 0-3.9-3.6-13.2-4.5 0 0 1.2 6.9 5.4 11.1 0 0-5.4-4.5-15.3-2.7 0 0 8.7 12.6 21.9 13.8 0 0-5.1 1.8-7.5 4.5 0 0 5.1 3.3 12.9.6 0 0-8.1 4.5-11.7 6 0 0 5.4 1.8 17.1-1.8V218.4c-.2 2.1-.6 5-2.1 7.7 0 0-5.4-4.8-10.8-6 0 0 6.3 8.7 2.7 18.6 0 0 2.2 3.5 11.1 3.1h1.8c2.6 11.7 7.1 22.7 13.1 32.8-2 .7-3.7 1.2-4.8 1.3l5.4 3s-8.7 3-12.6 3.6c0 0 2.1 2.1 3.9 3.3 0 0-10.5 4.8-14.7 4.5 0 0 2.4 2.4 3.6 2.7 0 0-6.9 1.8-9 .6l-.6 4.8c-.1-.1-6.1.5-7.6-1.6zm9.1-44c.9-1 3.2-1.1 4.2-.4 2.3 1.8.6 3.4-1.2 6.8-2.9 5.5 1 9.4-1.9 14.9-2.9 5.6-6.4 7.1-7.7 6.1-1.9-1.5.9-4.5 1.9-7 2-5.1-2.6-12.7 4.7-20.4zm-17.6-83.1s.1-.1.3-.1c.6.2 1.1.4 1.5.5.8 6.1-.3 9-2.9 9.8-2.8.8-7.6-2.3-9-9.6.6-.2 1.3-.4 2-.6.9 2.8 2.9 7.2 5.6 8.8 0 0 .6-.3.5-1-.1-2.1-.7-6.6 2-7.8zm268 170.7c-.2.3-.8.9-.9 1.2-29.6 30.6-69.9 47.5-111.4 50.7-.6 7.6-6.9 13.6-14.7 13.6-7.7 0-14.1-6-14.7-13.6-41.5-3.2-81.8-20.1-111.4-50.7-.2-.2-.7-.9-.9-1.2-.8-1-1-2-1-3.4 0-2.1 1.5-3.7 2.7-4.9l2.6-2.6s.6-.7.8-1.4c.2-.7.1-1.4 0-1.6-.5-1.7-.7-3.5-.7-5.4 0-11.9 9.6-21.6 21.5-21.6 1.8 0 3.6.2 5.3.7.3.1.7.1 1.6 0 1.1-.2 1.4-.7 1.7-1 .3-.3 1.8-2 3.2-3.3s2.7-2.3 4.6-2.3c2.2 0 3.7 1.2 5.1 2.8 10.1 10.5 22.2 18.4 35.4 23.8 13.5 5.8 28.4 9 44 9 15.6 0 30.5-3.2 44-8.9 13.2-5.4 25.3-13.3 35.5-23.9 1.4-1.6 3-2.8 5.1-2.8 1.9 0 3 .8 4.6 2.3 1.7 1.5 2.8 2.8 3.2 3.3.4.5.6.8 1.7 1 .7.2 1.3.1 1.6 0 1.7-.4 3.5-.7 5.3-.7 11.9 0 21.5 9.7 21.5 21.6 0 1.9-.3 3.7-.7 5.4-.1.3-.2.9 0 1.6.2.7.8 1.4.8 1.4l2.6 2.6c1 1.1 2.7 2.9 2.7 4.9.3 1.4.1 2.4-.7 3.4zm21.3-63.1c1 2.7 1.3 5.1 1.3 7.1 0 2.4-.5 4.3-.9 5.5-.1.1-.1.3-.2.4l-1 .3c-1 .3-2.8.5-3.7.5-.8 0-1.8-.2-2.6-.4 3.8-3.7 6-9.7 7.1-13.4zm-4.7 16.8c1.3 0 2.5-.1 3.7-.3.4.7.9 1.7 1.4 3.2.8 3.5-.7 3.7-1.5 4.1-8.8 3.5-9.1 15-14.2 12.9-6.1-2.5 1.3-19.3 1.3-19.3s-11.9 4.4-14.4 2.5c-2.5-1.9 2.1-7.2 2.1-7.2s-10.3 2.6-12.4 1.1c-2.1-1.5 1.5-6.8 1.5-6.8s-7.1 3.4-10.2 1.7c-3.2-1.7 3-7.6 3-7.6s-6.7 2.8-8.8 1.1c-.5-.4-.6-1.1-.5-1.8 2.9-4.4 5.4-9.1 7.6-13.9v.1c-.1.4-.2.9-.2 1.3-.2 1.5-.4 3.1-.4 4.6 0 2.8.5 5.5 2.2 7.5 2.5 2.8 8.9 6.8 16.6 10.4 7.4 3.4 16.2 6.4 23.2 6.4zm-11.2-8.2c-.2.2-7.9-1.8-12.2-9.7-4.3-7.9 2.1-8.9-2.9-12.5-5-3.6-5.9-8.3-1.8-9.7 2.1-.7 3.9-.4 7.5 1.8 3.6 2.1 2.9 5.7 3.2 16.1.5 10.5 6.4 13.8 6.2 14zm18.6-20.6c1.4-1.5 3.1-3.9 4.8-7.5 2.1 1.4 4.4 2.6 6.7 3.2-2.4 1.7-6.1 3.4-11.5 4.3zm44.4-33.9c0 .2-.1.5-.1.7l-3.4-2.8-1.8 1.8c-8.5-7.3-15.6-5.5-15.6-5.5l-8.5 5.5c11.6.7 14.2 8.9 14.4 15.6-.8.7-1.7 1.4-2.5 2.2-.1.1-.2.2-.3.2-.8.7-1.6 1.4-2.3 2.1l-.2.2c-.8.7-1.5 1.5-2.3 2.2l-.5.5c-.7.8-1.5 1.5-2.2 2.3-1.4 1.6-2.8 2.1-4.5 2.1-2.5 0-5.6-1.4-8.6-3.4-.7-.4-1.4-.9-2-1.4-3.6-2.6-6.6-5.3-8.9-6.3-2.5-1-8.7-2.5-16.2-2.5H352.1c-.3 0-.6 0-.9.1h-.5c-.4 0-.7.1-1.1.1h-.4c-.4 0-.8.1-1.2.2h-.2c-.5.1-.9.1-1.4.2h-.1c-4.9.9-10 2.7-14.4 6.1.5-1.6 1-3.1 1.4-4.7 6.2-3 16.3-6.2 30.3-4.6 0 0-8.6-2.7-21.7-1.9l-2.2-2.7s-2.1 1.1-4.8 3.2c.3-1.2.5-2.4.7-3.5 3.3-2.1 6.8-3 6.8-3l2.4-7.9c-.7-.1-3.5-1.4-7.5-3.6.1-1.4.1-2.8.1-4.3 5.5 2.4 10.1 4.5 12 5.4 0 0-1.8-5.8 8.5-7 0 0-9.6-1.6-20.6-3.8 0-.8-.1-1.6-.1-2.4 13.8 1.7 27.5 1.1 35.9-5.1 0 0-7.3 1.5-15.6.9 0 0 7.9-2.4 14.3-10.1 0 0-7.3 3.7-18.3 2.7 0 0 11-5.5 14.3-10.4 0 0-13.1 5.2-22.3 5.2 0 0 8.5-3.4 12.2-7l-11.2.9 3-4.6s-14.7-4.3-17.7-16.5l5.4.7s-4.5-16.4 5.2-21.1c-1.2-1.2-9.9-3.7-9.9-3.7s10.1-.7 14.6 1.2c0 0-.8-1.6-3.1-3.2-2.2-1.7-5.3-2.7-5.3-2.7s11.3-.6 14.6 2.7c0 0-3.4-6.1-6.1-8.2 0 0 6.7 2.1 10.7 6.7l2.7-.3s-.6-6.4-3.7-11.6c0 0 6.1 4.6 8.8 11.9 0 0 2.2 3.1 8.1 2.4l-.1.4.2.5s.9 2.2 2.3 4.8c1.4 2.4 3.1 5.1 5.5 6.6.3.9 1 2.7 2.1 4.8 1.4 2.6 3.4 5.5 6.2 7.3v.2c0 1.6.1 4.7.4 7.9.4 3.2 1 6.4 2.6 8.5 2.9 3.5 15.3 22 24.2 39.1 1.9 3.6 3 6.6 3 9 .3.3.3.5.3.7zM225.2 122.5c-52.2 0-94.5 42.3-94.5 94.5s42.3 94.5 94.5 94.5 94.5-42.3 94.5-94.5-42.4-94.5-94.5-94.5zm54.5 150.3h-93.2v-12.4h4.2c4.6 0 8.2-3.8 8.2-8.3l-.1-80c0-4.6-3.7-8.3-8.3-8.3h-3.9v-9.4h54.1v9.4h-4.3c-4.6 0-8.3 3.8-8.3 8.3v85.6h27c3.7 0 7-3.6 6.7-7.3-.1-1.1-.2-2.8-.2-4 0-7.1 4.1-13.4 10.3-16.5l6.1 6.1c-3.2 2.9-5.2 7.1-5.2 11.8 0 5.5 2.8 10.3 7 13.2l-.1 11.8zM59.1 243.5s-2.8 2.3-2.6 3.3c.3 2 2.6.7 3.2.1 9.8-10.1 27.6-16.5 27.4-17.5-.2-1.1-15.5 3.3-28 14.1zM328 336.2l-18.4-21.9-3.3 2.8 20.8 24.8 8.8-7.4-2.4-2.9-5.5 4.6zm-104.6 8.7l-6.5 32.4 4.2-.1 1.1-6.3 6.4-.1 1.3 6.3 4.3-.1-7.5-32.2-3.3.1zm4.5 22.6l-5.1.1 2.3-16.5h.1l1.8 11.7.9 4.7zm17.9-24.2l-14.1 1.7.5 3.7 5-.6 3.5 28.4 4.3-.5-3.5-28.4 4.8-.6-.5-3.7zm-20.6 38.6c-5 0-9 4-9 9s4 9 9 9 9-4 9-9c-.1-5-4.1-9-9-9zm0 16.1c-3.9 0-7.1-3.2-7.1-7.1 0-3.9 3.2-7.1 7.1-7.1 3.9 0 7.1 3.2 7.1 7.1-.1 3.9-3.2 7.1-7.1 7.1zm39.3-59.5c-7.9 2.6-4.7 12.8-2.9 18.4 1.8 5.5 5.2 15.7 13.1 13.2 7.9-2.6 4.7-12.8 2.9-18.4-1.8-5.6-5.2-15.8-13.1-13.2zm9 27.7c-3.2 1-5.4-4.2-7.5-10.7-2.1-6.5-3.4-12.1-.2-13.1 3.2-1 5.4 4.2 7.5 10.7 2.1 6.5 3.4 12 .2 13.1zM78 195.1c-.8 16.9 13.3 11.3 13.3 11.3-9-3-13.3-11.3-13.3-11.3zM296.4 324l11.7 30.9 3.5-2.3-2.4-5.9 5.4-3.5 4.4 4.6 3.6-2.4-23.4-23.3-2.8 1.9zm4.8 4.4l7.8 9 3.3 3.5-4.3 2.8-6.8-15.3zM249 342.7l6.2 31.7 4.2-.8-6.2-31.7-4.2.8zM227.1 391c1-.4 1.7-1.3 1.7-2.7 0-1.9-1.4-3.2-3.8-3.2-1 0-2 .2-2.9.6l-.2.1v10h2v-4.2h.5c.7 0 .9.2 1.2.8l1.6 3.4h2.2l-1.9-3.9c0-.3-.2-.6-.4-.9zm-2.3-1.1h-.8v-2.8c.3-.1.7-.1 1.1-.1 1.4 0 1.8.5 1.8 1.4-.1 1.1-.6 1.4-2.1 1.5zm138-168.7c-.1.7 3.7 1.6 8.6 4.6 4.8 2.9 10.5 8 16.9 13.5.6.4-.1 1.3-.3 1.1-16.9-13.1-33.6-15.1-33.4-12.9.1.9 3.8.9 8.6 2.7 6.9 2.6 16.3 7.4 23.2 12.4.5.3-.1.8-.4.7-19.6-6.9-37.3-10.9-37.1-8.5.1 1 5.6 1.1 12.5 3 9.4 2.7 21.8 7.4 30 10.5.2-.1 1.4.3 3.7-1.7 1.9-1.8 1.6-2.7 1.6-2.7-18.2-20-33.4-25.1-33.9-22.7zm-225.9 89.9l-21.6 24 3.2 2.9 21.6-24-3.2-2.9zm15.2 11.9l-6.6 9.4-6.6 11.2h-.1l7.9-24.4-3.4-2.4-18.5 26.5 3.5 2.5 6.8-9.7 5.7-9.2 1-1.9h.1l-8.1 24.7 3.3 2.3 18.5-26.5-3.5-2.5zm-55.8-92.8c-2.5-7.9-8.4-9.9-8.4-9.9 6.6 12.6 1.9 21.1 1.9 21.1s7 .8 11.4-2.8c3.4-10.5-4.5-19.4-4.5-19.4 1 4.8-.4 11-.4 11zm113.4 125.5l-.8 13-.1.1-4-25.4-4.1-.6-4.5 32 4.2.6 1.7-11.8.9-10.8v-2.1l.1-.1 4 25.7 3.9.6 4.5-32-4.2-.6-1.6 11.4zM189.3 340l-5-1.3-8.4 31.2 4.1 1.1 4.1-15.3h.1l1.5 16.8 4.3 1.2-1.7-16.7c3.6.3 5.7-3.9 6.5-6.9 2.2-7.9-2.4-9.3-5.5-10.1zm1 9.8c-.8 3.1-2.5 4.8-5.5 3.8l2.8-10.3.7.2c3.1.7 2.8 3.3 2 6.3zm-15.5 4.1l1.4-3.5-6-2.4 3.8-9.4 6.7 2.7 1.4-3.5-10.7-4.3-12.1 30 10.7 4.3 1.4-3.5-6.7-2.7 4.1-10.2 6 2.5zm-7.1-17.8l1.8-3.3-12.5-6.7-1.8 3.3 4.5 2.4-13.4 25.2 3.8 2 13.4-25.2 4.2 2.3z" fill="#00539b"/></svg>